<svg xmlns="http://www.w3.org/2000/svg" viewBox="0 0 64.98 103.19"><g id="Layer_2" data-name="Layer 2"><g id="header-wave"><path d="M64.64,99.17a6.66,6.66,0,0,0-.5-.69,6.53,6.53,0,0,0-3-.81,8.17,8.17,0,0,1-3.81-2.44c.16-3.68.33-6.63.44-8.55,0,0,.33-5.43.06-13.29A10.44,10.44,0,0,0,57,69.27a12.51,12.51,0,0,0-1.44-2.38,13.47,13.47,0,0,0-1.18-1.44c-.73-.76-1.27-1.33-1.42-1.47l-.53-.53,1.45-4.53a1.62,1.62,0,0,0,.38,0,2.84,2.84,0,0,0,2.24-2.12c0-.52-.29-1,0-1.62.15-.32.27-.27.44-.63A2.08,2.08,0,0,0,57,52.91a2.21,2.21,0,0,0-.56-.75A8.33,8.33,0,0,0,54.91,51c-1.27-.73-2.28-2.59-3.78-5.39a13.62,13.62,0,0,1-1.41-3.11,18.07,18.07,0,0,1-.35-3.72c-.09-1.58-.22-2.69-.42-4.35a28.77,28.77,0,0,0-.88-5.29,9.66,9.66,0,0,0-1.7-3.78c-1.12-1.33-2.43-1.88-2.27-2.65s1.26-.85,1.19-1.31c0-.07-.07-.27-.9-.53a7,7,0,0,0-2.16-.34L42,19.88a1.72,1.72,0,0,1,.34-1.06c.6-.76,1.58-.34,2.43-1.07a3,3,0,0,0,.84-1.83,12.18,12.18,0,0,0,0-2.33,16.38,16.38,0,0,1,.12-2,4.46,4.46,0,0,0,0-2.75l0-.39c.36-.1.86-.24,1.44-.46A7.78,7.78,0,0,0,49.3,6.9c.84-.64,1.69-1.65,1.46-2,0-.09-.13-.09-.74-.25s-.77-.22-1.07-.29A20.83,20.83,0,0,0,45,3.88a7.79,7.79,0,0,0-2.42-2.6A8,8,0,0,0,37.48,0a9,9,0,0,0-5,1.94,5.13,5.13,0,0,0-2,1.93,6.06,6.06,0,0,0-.75,2.37,6.59,6.59,0,0,0,.07,2l-.35.47a3.12,3.12,0,0,0-1.24.6,3.83,3.83,0,0,0-1.08,2.62s0,.1,0,.21a3,3,0,0,1-.26,1.26,25.49,25.49,0,0,0-4.11-1.69c-2.4-.73-3.21-.58-3.68-.18-.68.56-.35,1.34-1.07,1.87-.91.68-2-.24-3.24.13S13.07,15,12.14,17c-1.68,3.56-1.45,5.65-2.94,6.24-.76.31-1.07-.16-1.87,0-1.8.36-2.42,3.06-4.12,8.87C2,36.28,1.46,40.7.22,44.92a2.62,2.62,0,0,0-.07,1.87C.63,47.9,2,47.84,2.34,49c.2.63-.15.83.06,1.62a3.46,3.46,0,0,0,1.24,1.75C9.21,57,13.26,58,13.26,58a10.53,10.53,0,0,0,2.15.32,2.42,2.42,0,0,1,1.08,0,1.38,1.38,0,0,1,.39.2c-.07,4.4-.22,8.08-.37,10.8-.38,6.9-.73,8.46-1.13,9.82a69.07,69.07,0,0,1-3.31,7.65c-1.67,3.6-1.93,3.91-3,6.31-2.37,5.38-3.55,8.07-2.68,9.24,1.75,2.37,9.74-.95,10.3-1.19,3.73-5.78,6.74-10.85,9.05-14.91,2.67-4.72,4.25-7.79,5.49-12a45.38,45.38,0,0,0,1.5-7.18L36,68.77c3.72,1.92,4.26,2.15,5.11,2.68a19,19,0,0,1,5,4.52Q43,87.07,39.8,98.17h1.8L47,81.32c.32,2.4.68,4.86,1.07,7.36q.48,3.06,1,6l-.54,1.73v1.09c.45.2,1.38.62,2.58,1.07,6,2.21,13.34,3,13.86,1.52C65,100,65,99.68,64.64,99.17ZM32.39,15.85a4.56,4.56,0,0,1-.13.76,4.49,4.49,0,0,1-.42,1.05c-.73-.15-1.51-.29-2.32-.4l-1.59-.18c0-.67,0-1.34,0-2l-.28,0c-.69.14-.93.59-1.1.51s-.14-.38,0-.67a.9.9,0,0,1,.27-.35,2,2,0,0,1,1-.3,2.45,2.45,0,0,0,.09-.32L28,14v.24c0,.27,0,.55,0,.82.4,0,.62.14,1,0a1.5,1.5,0,0,0,1-1c.23-.75-.51-1-.25-1.83.08-.23.17-.28.44-.88l0-.06a2.87,2.87,0,0,0,.27-1c.08.16.21.41.36.73s.16.39.34.79.2.42.39.82.31.67.4.9A4.92,4.92,0,0,1,32.39,15.85ZM50.17,61.09c-.69-.74-1.51-1.64-2.51-2.75l-4.37-4.56L40.61,51c0-.5-.1-1-.16-1.49a23.43,23.43,0,0,1,.9-4.15c.19-.58.68-2.15,1-2.1s0,1.58.69,3.54A10.24,10.24,0,0,0,44.16,49a37.25,37.25,0,0,0,6.25,7.37c.3.28.57.54.82.76Z"/></g></g></svg>