<svg xmlns="http://www.w3.org/2000/svg" viewBox="0 0 54.81 91.13"><defs><style>.cls-1{fill:#0e0603;}</style></defs><g id="Layer_2" data-name="Layer 2"><g id="tree-2"><g id="layer1"><path id="path2652" class="cls-1" d="M31.89,0,31.8.57c0,.31-.15,1.25-.25,2.09l-.18,1.53-.77-1c-.9-1.13-1-1.18-1.09-.47a3.41,3.41,0,0,0,.75,1.6A2.75,2.75,0,0,1,31,6.74c0,.87-.15,1.25-.31,1.14a.65.65,0,0,1-.19-.51c0-.19-.08-.35-.2-.36s-.2-.43-.15-.93c.09-1-.43-1.82-.85-1.27a.78.78,0,0,0-.16.6c.09.35-.56.07-1-.42a1.14,1.14,0,0,0-.59-.36c-.63-.06-.59.61.1,1.57.81,1.13.84,1.34.22,1.45a.4.4,0,0,0-.37.53c.08.51.7.66,1.17.28s.35-.27.32.61-.07.75-.82.22-.9-.53-1,0a2,2,0,0,0,.67,1.12c.52.5.58.62.21.49s-.54-.05-.65.18c-.25.51-.41.45-1.87-.71a4.66,4.66,0,0,0-1.57-1c-.5.14-.28,1.06.37,1.5l.65.43-.64,0a1,1,0,0,0-.78.32c-.16.33.39.72.76.54.13-.07.22,0,.21.13s.16.27.39.3.31.09.06.16-.22.21.16.56l.51.46-1,.07c-1,.08-1.29.43-.73,1a.59.59,0,0,0,.72.13c.46-.21,1.28,0,1.25.33,0,.11.19.23.45.25s.48-.06.49-.19.25-.21.54-.18l.53.06-.62.42c-.49.33-.56.47-.32.65a1.06,1.06,0,0,0,1.29-.21c.12-.13.13.05,0,.4-.17.52-.13.63.27.67s.49-.09.51-.25.08-.18.15.06.19.19.45-.2l.35-.53.23.67c.13.37.15.73.05.82a6.87,6.87,0,0,1-1.89.08A3.49,3.49,0,0,1,25.72,17c-1-.75-1.7-.93-1.75-.42,0,.11.26.39.59.62l.61.43-.8-.23a6.72,6.72,0,0,1-2.64-1.69,1.22,1.22,0,0,0-.73-.37c-.47,0-.64.4-.3.8.13.16-.25.24-1,.21a6.53,6.53,0,0,0-1.41.06c-.81.4,1,1.44,2.39,1.37l.95,0-.69.31c-.42.19-.68.47-.65.71,0,.58,1.08.49,1.79-.17a1.28,1.28,0,0,1,1-.41c.32.11.27.18-.24.34-.83.25-1.1.62-.64.85a.37.37,0,0,1,.22.47.35.35,0,0,0,.19.45c.18.09.33.07.34,0s.8-.45,1.38-.46a1.94,1.94,0,0,0,.8-.4c.29-.22.52-.32.51-.22s-.58.67-1.21.94c-.3.12-.56.33-.57.46,0,.44.67.58,1.15.22s.47-.34.31.11c-.24.67.24.65.78,0,.34-.43.5-.49.62-.24s.21.27.4,0a.71.71,0,0,1,.66-.2,2.14,2.14,0,0,0,2.36-1.3c.06-.42.09-.41.19.11s-.05.72-.8,1.28a13.28,13.28,0,0,1-2.41,1.29l-1.52.63-1.07-.67a9.89,9.89,0,0,0-1.36-.74c-.41-.12-.4.34,0,.94s.32.48,0,.17-.47-.3-.58-.24-.49-.07-.84-.29c-.81-.53-1.09-.53-1,0,.07.34-.05.4-.61.33a2,2,0,0,1-.81-.22c-.26-.32-1.05,0-1.09.48s.07.45.46.38.48-.06.05.33-.41.5.49.51c.41,0,.48.09.33.39s-.08.38.42.34.57,0,.44.36,0,.53.59.27,1.23.79.72,1.18c-.29.22-.37.21-.44-.07s-.46-.38-.91-.44-.77,0-.71.11-.1.14-.35.05c-.57-.21-.62.15-.08.56a.73.73,0,0,1,.24.9c-.21.73-.25.73-1-.08a2.63,2.63,0,0,0-1-.68c-.39,0-.43.08-.17.67s0,.48-1.7,0c-.56-.17-.87-.16-.88,0s1.12,1.09,1.67,1.14c.32,0,.34.09.08.35s-.26.36,0,.49a1.31,1.31,0,0,0,.55.14c.49,0,.79.11.71.38s.16.3.55.33.64.16.61.53,0,.46.47,0,.51-.43.48-.12.07.34.21.27.32.16.42.51a1.36,1.36,0,0,0,.51.79.57.57,0,0,1,.32.49.35.35,0,0,0,.34.37,1,1,0,0,1,.65.46c.24.41.29.41.85,0l.59-.41-.46.45a4.48,4.48,0,0,1-2.1.69c-2.1.31-2.6.24-3.39-.39s-1.12-.53-1,.15c.08.38,0,.46-.57.41a1.62,1.62,0,0,1-.88-.32c-.14-.18-.37-.16-.7,0s-.45.31.23.78c.52.37.67.62.54.92s-.06.4.15.39c.68,0,.94.11.78.44-.28.56.55.92,1.23.53.46-.25.52-.26.29,0-.44.45-.11,1,.52.86.91-.2,1.11.28.21.51A2.91,2.91,0,0,1,16,37.84c-.42-.51-1.13-.58-1-.1.08.29-.09.31-.93.12-1.24-.29-1.44.08-.32.61.55.25.73.47.62.75-.16.46.55.8,1.15.53.32-.14.39-.07.35.4s0,.56.46.49.48,0,.32.31-.1.39.29.33.47,0,.46.13c0,.41.48.25,1.16-.36.83-.73,1.29-.86,1.81-.53s.43.64-.33.46-.95.15-.45,1c.3.52.29.55-.14.51a1.34,1.34,0,0,0-.85.28,1.22,1.22,0,0,1-.74.28.65.65,0,0,0-.51.17c-.08.12-.56.16-1.06.11a3.17,3.17,0,0,0-1.23.06,2.24,2.24,0,0,1-1.07,0c-.62-.1-.76,0-.87.41s-.28.51-.71.49a5.15,5.15,0,0,0-.82,0,2.26,2.26,0,0,1-.65,0c-.22,0-.41,0-.42.13,0,.31,1.2,1.12,1.78,1.17s.52.06.07.48-.45.43.14.49.57.14.44.4,0,.33.52.25a7,7,0,0,1,.8-.08c.73.08.89.18.75.45-.3.62.31.66.72,0s.4-.58.36-.09c0,.29,0,.54.14.56,1.41.35,1.65.3,2-.37l.36-.67.15.57.15.58.51-.54c.51-.54.51-.54.46,0-.06.71.36.7.61,0,.11-.32.31-.57.43-.55s.13.12,0,.26,0,.21.59.15.75,0,.66.18a3.67,3.67,0,0,1-2.44,1c-.34,0-.68.07-.76.22s-.55.23-1.22.16-1.08,0-1.09.06c0,.45.72,1,1.37,1,.39,0,.71.09.72.21,0,.4-1.36.48-4.71.3-3.76-.2-5.28-.18-5.3.07,0,.1-.28.11-.6,0s-.58-.05-.59.09c0,.33.69.81,1.31.87.26,0,.48.15.47.27a.26.26,0,0,1-.27.22,1.71,1.71,0,0,0-.81.41L7.71,53l.77,0c.51,0,.76.06.74.25s.17.26.46.22.46,0,.45.18c0,.38.56.38.94,0a.89.89,0,0,1,.56-.3c.13,0,.06.19-.18.41a1.73,1.73,0,0,0-.44.54c0,.25.87.28,1.06,0s.56-.22.68.3.4.63,1.3.11l.72-.42-.21.7c-.26.86.16,1,1.18.32.67-.44.68-.43.4,0s-.23.79.27.65a.82.82,0,0,1,.67.22c.22.23.33.25.35.06s.18-.24.37-.22a.33.33,0,0,1,.32.36c0,.22.18.33.62.32,2.46,0-.82,1.07-3.69,1.26-1.88.12-2.06.09-2.63-.37a2.45,2.45,0,0,0-.91-.51c-.48-.05-.37.43.17.73.37.2.23.2-.53,0a10.39,10.39,0,0,0-1.62-.28,7.48,7.48,0,0,1-1.71-.47,4.94,4.94,0,0,0-1.2-.38c-.27.22,1.13,1.33,2,1.54l1,.25-.88,0c-.61,0-.89,0-.91.3a.43.43,0,0,0,.37.42,6,6,0,0,1,.63.15,4.91,4.91,0,0,0,.57.13c.24,0,.2.14-.15.35-.62.37-.38.7.3.41.42-.17.51-.14.48.17s.13.38.73.35A7.66,7.66,0,0,0,12,60.57c.47-.13.46-.13,0,.2s-.4.42.37.41a.34.34,0,0,1,.38.37c0,.5.14.48.76-.09L14,61l-.44.6a2.68,2.68,0,0,0-.45.84c0,.36,1.14.2,1.73-.24s.5-.35.27.2c-.32.77-.63.91-2.84,1.35-1.84.37-2,.37-2.88-.09s-2.45-.75-2.48-.43a.94.94,0,0,0,.23.5c.17.21-.14.15-1-.18a4.08,4.08,0,0,0-1.58-.38c-.31.09-.29.21.11.73l.48.62-.76-.3c-1-.39-2.23-.5-2.44-.23S3.26,65,4.18,65.13l.74.07-.73.48c-.73.48-.79,1.19-.09,1,.23-.06.32.09.29.49s.06.59.39.62a1.25,1.25,0,0,1,.77.43c.27.33.41.35.83.14s.52-.34.53-.43.18,0,.39.27c.41.47.48,1,.13,1-.11,0-.14.1-.06.26s-.08.2-.58,0-.73-.14-.74,0-.48.22-1.08.16c-1.09-.1-1.32.08-.76.64a2.12,2.12,0,0,0,1.44.29l1.13,0L5.86,71c-.63.26-.88.5-.8.76a.36.36,0,0,0,.5.25,3.4,3.4,0,0,1,.75-.14c.19,0,.22,0,.05.05-.61.14-.34.55.31.46.47-.07.55,0,.29.11-.65.35-.11.52.66.21.42-.17.75-.21.74-.09a.42.42,0,0,1-.33.3c-.16,0-.22.17-.13.29s.47.13.86,0c.57-.15.67-.13.54.13s0,.27.29.19.4-.06.12.19-1.07.22-3.7-.07a11.56,11.56,0,0,0-3.39-.14c0,.13.14.25.34.26a1.17,1.17,0,0,1,.66.4c.26.31.25.37-.08.46a4.18,4.18,0,0,1-1.11,0c-.86-.08-1.48.17-1.3.52s1.37.62,2.35.38c1.32-.33,1.39-.29.67.3-.9.75-.89,1.25,0,1.08a5,5,0,0,0,1-.26c.14-.07.25.07.24.3s0,.55,0,.7a.86.86,0,0,0,.14.46c.16.2,1.64-.46,1.67-.74,0-.11.11-.13.23,0s.11.36-.07.73a3,3,0,0,0-.3.8c0,.31,1.15-.39,2.36-1.39.91-.75,1-.6.16.23a.9.9,0,0,0-.27.78c.1.36.18.34.76-.1l.66-.5-.13.58c-.13.52-.29.58-2,.7A4.8,4.8,0,0,1,6.33,79c-.55-.41-1.81-.75-1.83-.49s.15.31.37.39-.12,0-.76-.08c-.93-.16-1.1-.15-.89.11.4.49.29.65-.34.47s-1.82,0-1.67.26a.85.85,0,0,0,.65.29c1,.1.83.4-.44.78-2.15.64-1.75,1.3.45.75,1.11-.28,1.53-.17.7.17a.9.9,0,0,0-.54.59c0,.28.11.34.6.27s.6-.06.3.24c-.7.7,0,.76,1.08.1.52-.31.54-.3.36.2s-.15.5.23.25.4-.24.22.13-.12.37.44,0,1-.41.72.15.35.44,1.29,0c.45-.22.79-.27.78-.13s.22.22.63.17.53,0,.28.09A7.34,7.34,0,0,1,7.28,84c-1.55.18-2,.39-1.84.79s.45.28,1.89,0c.36-.06.28.08-.35.59a3.93,3.93,0,0,0-.84.77c0,.23,1.3.07,2.09-.26s1-.21.36.45-.52.87.05.77c.31-.05.47,0,.45.26,0,.44.17.43.76,0s.49-.34.37.09c-.19.7,1.13.61,1.89-.13l.6-.58-.22.75c-.3,1,.28,1.07,1.28.18a4.53,4.53,0,0,1,.8-.63,1.31,1.31,0,0,1,.06.61c0,.93.32,1.21.86.69s.48-.42.73,0,.28.39.46-.07c.11-.3.31-.44.5-.35s.38-.07.52-.45.26-.52.37-.31a1.07,1.07,0,0,0,.64.44c.37.09.62-.1,1.09-.88.61-1,1.19-1.36.83-.51-.23.55-.1.58.7.15a1.36,1.36,0,0,0,.68-.82c.06-.39.09-.41.15-.07.11.7.52.26.61-.67.07-.69.12-.77.28-.43a.92.92,0,0,0,.69.48c.46,0,.47.13.16,1.84a8.26,8.26,0,0,1-1,2.88c-.26.42-.49.79-.6,1l5.81.54c.28-.18.19-.55,0-1.21-.32-1-.29-3.07,0-3.15.14,0,.39.27.59.68.36.76.86,1.08.67.43s.19-.32.44.47c.19.63.38.83.8.83a1.61,1.61,0,0,1,.87.29c.22.2.34.2.42,0s.26-.1.53.23c.55.66.85.65.77,0,0-.32,0-.43.11-.27.23.37,1,.69,1,.43s1.3,0,1.95.31c.34.18.41.14.33-.16s0-.43.17-.47.23-.16,0-.42c-.47-.61-.25-.66.58-.13s1.2.53.79-.13c-.22-.35-.22-.38,0-.14a.7.7,0,0,0,.62.22c.18-.06.33,0,.32.11a1.61,1.61,0,0,0,.26.69c.24.41.34.44.7.19s.45-.2.74.3l.33.58.26-.55c.25-.5.28-.51.53-.1s.49.56,1,.14c.31-.26.34-.4.13-.69s-.18-.37-.09-.36,0-.23-.07-.53c-.19-.47-.1-.43.5.23,1.33,1.45,1.42,1.5,1.87,1.13a.63.63,0,0,0,.26-.65c-.08-.17,0-.13.27.1,1.15,1.1,2.38,1.42,1.62.4-.34-.45-.32-.48.3-.58l.65-.1-.63-.62c-.83-.82-.35-.77.86.08a5.51,5.51,0,0,0,1.26.71c.48,0,.38-.34-.17-.66s-.41-.3.44-.24a3,3,0,0,0,1.44-.22c.46-.29.46-.31-.21-.37a28.89,28.89,0,0,1-5.21-1.47c-.87-.45-1-1-.13-.62s1.19.16.64-.31c-.31-.28-.2-.3.69-.15,1.13.2,1.4-.06.59-.57-.43-.28-.35-.3.63-.16,1.33.19,1.75-.21.63-.6l-.75-.26.77,0c.9,0,1-.26.3-.7-.41-.26-.23-.28,1,0,1.39.24,1.47.23,1.08-.14a1.7,1.7,0,0,0-.82-.44.7.7,0,0,1-.54-.31c-.08-.16.07-.23.41-.17,1,.17,1.61.15,1.63,0s-.72-.35-1.61-.52-1.57-.4-1.49-.5a4.48,4.48,0,0,1,1.54-.35c1.46-.19,2.41-.58,2.15-.89a8.77,8.77,0,0,0-3.23.23c-.55.09-.53,0,.26-.52,1.3-.92.63-1.09-1.19-.3A4.79,4.79,0,0,1,44,79c-2.12-1-5.5-3.09-5.72-3.61s-.09-.61.45.09c.23.3.44.47.45.36s.16,0,.34.14.33.25.36-.1.15-.3.71.33l.66.76-.06-.77c-.08-.76-.07-.76.54-.43a5.52,5.52,0,0,1,.93.63c.84.78,1,.77.86-.06-.07-.63,0-.74.17-.49.37.44,1.33.48,1.37.06s.42-.42.63,0a3.44,3.44,0,0,0,.77.8c.5.39.61.42.63.13a1.4,1.4,0,0,0-.39-.8,1.44,1.44,0,0,1-.41-.71c0-.13.08-.16.15-.07s.31,0,.53-.17A1.4,1.4,0,0,1,48.22,75c.59.13.91.1,1-.11s.33-.23.9,0c2,.78,2.45.15.53-.76-1.3-.61-1.44-.88-.22-.4,1.56.61,3.67.46,2.84-.2a3.56,3.56,0,0,0-1.38-.4C51,73,51,73,51.55,72.89a1.12,1.12,0,0,0,.83-.4c.12-.26-.25-.33-2.25-.38-2.35,0-2.39-.06-2.06-.49.5-.65.21-.79-1-.51a5,5,0,0,1-2.08,0,27.85,27.85,0,0,1-6.15-2.72c-.5-.54-.44-.87.12-.63.25.1.46.08.47,0s.37-.15,1.49.47a6.16,6.16,0,0,0,1.86.49c.65.06,1.28.15,1.39.18.54.16.61,0,.25-.52s-.17-.33.26.14c.74.81,1,.89,1,.38,0-.31.1-.3.59.09s.64.37.75.25a2.84,2.84,0,0,1,.9-.44c.7-.24.71-.26.31-.62s-.36-.45.45-.06c.43.22.59.21.61,0s.63-.38,1.58-.48a3.58,3.58,0,0,0,1.56-.38c0-.12.11-.13.24,0a.78.78,0,0,0,.65,0c.37-.17.35-.22-.21-.42s-.58-.32-.45-.63,0-.44-.36-.53-.09-.23,1-.46c1.65-.36,2.08-.79.66-.64s-4.53-.11-4.51-.34A.23.23,0,0,1,49.7,64a.23.23,0,0,0,.25-.21c0-.13-.48-.27-1.09-.32-1.53-.11-3.94-.85-4-1.25-.06-.23.1-.32.49-.28s.59,0,.6-.17.17-.16.36-.06.35,0,.36-.11.19-.13.51.14a2.27,2.27,0,0,0,1.08.47l.59,0-.5-.5-.49-.5,1.12,0,1.14,0-.78-.47-.79-.47.72.06a1.85,1.85,0,0,0,1.33-.47,1.87,1.87,0,0,1,.85-.51A1,1,0,0,0,52,59c.49-.65,0-.84-1.43-.51s-1.79.32-1.59-.24.16-.56-1.35-.22c-1.15.26-1.27.24-3-.43-2.34-.91-2.9-1.61-1.05-1.33a.62.62,0,0,0,.53-.19c.13-.18.32-.12.62.21s.64.45,1.39.4c1.08-.09,1.15-.17.61-.71-.39-.38-.23-.36.73.14.35.17.41.14.32-.19s0-.38.37-.35.46-.07.39-.3a.35.35,0,0,1,.19-.44c.21-.07.19-.2-.06-.45s-.3-.39.26-.84c.91-.73.77-.91-.5-.63-3.15.69-4.28.65-5-.23-.38-.49-.4-.61-.11-.7a2,2,0,0,1,1,.23c1,.47,1.22.12.45-.63-.54-.53-.57-.62-.19-.55.81.15,1.29.1,1.31-.14s-.16-.26-.38-.29-.32-.09.1-.21a1.18,1.18,0,0,0,.68-.51c.16-.31.12-.33-.36-.12-.86.38-5.72-.15-6.7-.73-.68-.4-.72-.45-.23-.42s.54-.07.48-.47-.05-.46.27-.13c.47.49,1.15.8,1.18.54s.22-.13.47,0,.47,0,.48-.1.29-.23.61-.2c.77.08.76-.16-.07-1l-.7-.69,1.24.32c1.26.32,1.74.28,1.53-.14s.48-.87,1.18-.8.94-.3.21-.54c-.3-.09-.17-.12.3-.06s.8,0,.78-.17a.22.22,0,0,1,.22-.27c.18,0,.18-.1,0-.37a.9.9,0,0,0-.88-.33c-.34,0-.48,0-.31,0,.56-.18.36-.58-.25-.49s-.55,0-.4-.28.1-.34-.15-.22a2.59,2.59,0,0,1-.93.16,6.86,6.86,0,0,0-1.2.1l-.6.1.69-.48c.8-.57,1-.93.25-.64s-1.16.21-.76-.12c.57-.47.41-.91-.18-.46a5.72,5.72,0,0,1-1.3.7c-1.49.54-5.26-.74-5.16-1.76a1.08,1.08,0,0,0-.22-.68q-.26-.3,0-.27a.49.49,0,0,1,.35.38c.07.23.39.38.88.41a4.19,4.19,0,0,1,1.28.27c.42.18.52.12.55-.28l0-.48.75.54c.54.39.81.48.94.3a.39.39,0,0,0-.1-.51c-.26-.21,1.1-.05,2,.23a2.26,2.26,0,0,0,.78,0c.5-.11.52-.16.21-.57s-.28-.45.28-.53.87-.54.25-.61c-.26,0-.14-.14.32-.3a7.64,7.64,0,0,0,1.47-.76l.73-.5-.83-.25c-.47-.13-.84-.34-.83-.46s-.26-.19-.64-.14c-.57.09-.62.07-.33-.23.5-.5-.15-.73-.89-.31a3.37,3.37,0,0,1-1.74.25c-.92-.07-1.05-.13-.63-.27s.54-.35.42-1.26a3,3,0,0,0-.84.33,3.58,3.58,0,0,1-1.62.34,11.6,11.6,0,0,1-5.36-2.67c-.57-.52-.43-.6.25-.15.35.23.44.21.47-.13s.06-.4.25,0c.11.24.3.39.43.33s.47.09.78.33c.54.44.55.43.61-.23,0-.37.14-.54.22-.39a2.72,2.72,0,0,0,1.36.93c.14,0,.29-.21.33-.5.07-.5.07-.49.17.08.07.32.17.55.23.5s.32.05.58.22.52.23.82-.11.44-.34.54-.26.15-.14.09-.48c-.09-.6-.07-.61.53-.32s1,.24.61-.3c-.21-.32-.19-.37.16-.34s.39,0,0-.44c-.2-.27-.26-.53-.13-.59s.4.1.6.38.54.48,1.46.38c.05,0,0-.16-.13-.34-.27-.4-.07-.63.5-.58a2,2,0,0,0,1-.37l.6-.41L45,29.8a9.92,9.92,0,0,0-1.27-.11c-.5,0-.53-.05-.23-.34.57-.57.21-.6-.75-.07s-1.65.63-1.13.11c.28-.27.27-.31-.07-.22s-.49-.19,0-.56c.65-.54,0-.51-.79,0-1.56,1.08-1.75,1.1-3.34.45s-2.76-1.44-3-2.12c-.17-.41-.12-.46.38-.39a.8.8,0,0,1,.66.46.72.72,0,0,0,.57.45c.39.07.47,0,.4-.43s0-.44.41.17a1.69,1.69,0,0,0,1,.73c.46.05.52,0,.46-.64-.09-.9.48-1.09,1-.33.35.53,1.63,1,1.67.61a2.8,2.8,0,0,0-.69-.87c-.53-.54-.6-.7-.28-.68a.62.62,0,0,1,.52.39c.05.2.19.32.3.26a.26.26,0,0,1,.33.15,1,1,0,0,0,.74.31c.59.06.6,0,.19-.32s-.39-.38.26-.56a3.93,3.93,0,0,1,1-.17c.15,0,0-.16-.27-.36-.54-.37-.54-.38.34-.22a1.62,1.62,0,0,0,1.26-.13c.57-.46.23-.79-.93-.89-.64-.07-1-.2-.88-.33.34-.45-.52-.54-1.54-.16-1.24.46-1.47.47-1.25,0,.11-.21,0-.35-.2-.37s-.3-.16-.2-.37c.2-.4.12-.42-.68-.2-.52.15-.57.11-.43-.27s-.21-.66-.5-.27a4.16,4.16,0,0,1-1.18.62,1.89,1.89,0,0,1-1.91,0c-.76-.3-.85-.4-.5-.55a.79.79,0,0,0,.45-.54c0-.28-.2-.37-1-.39s-1.16-.16-1.47-.54c-.46-.57-.78-2.46-.44-2.63s.27.4.13,1a2.24,2.24,0,0,0,.37,1c.34.6.5.7.79.5a1.41,1.41,0,0,0,.43-.85c.07-.48.1-.51.16-.13A1.61,1.61,0,0,0,35,21.59c.47,0,.52,0,.35-.43-.25-.59-.23-.81.05-.59.12.09.23.05.24-.09a.25.25,0,0,1,.26-.22c.13,0,.22.17.2.35,0,.42,1.22,1.71,1.52,1.56a.73.73,0,0,0,.27-.56c0-.25.15-.44.29-.43s.19-.12.13-.28.05,0,.26.26.48.51.58.43a1.52,1.52,0,0,1,.71-.19c.64,0,1.63-.4,1.65-.63s-.29-.33-.65-.52-.64-.47-.59-.61-.25-.31-.64-.36c-.82-.1-2-.77-1.49-.87a.51.51,0,0,0,.33-.41c0-.37-1.13-.57-1.52-.27s-1.33.43-1.3.18.29-.26.63-.31c.51-.08.57-.17.37-.47s-.16-.35.19-.33c.52,0,1.46-.5,1.27-.72a3.78,3.78,0,0,0-1.19-.38c-1.15-.24-1.15-.24-.74-.85.26-.4.32-.4.8,0s.53.38.72-.06c.11-.26.29-.4.41-.32s.21,0,.23-.09.23-.22.49-.2.48-.11.49-.29c0-.35-.43-.65-1.13-.71-.53-.05-.56-.49,0-.63.2-.06.32-.19.27-.29s.18-.29.52-.43c.82-.35.67-.76-.34-.85l-.82-.08.66-.72c.52-.56.6-.78.4-1s-.44-.14-1.1.45-.87.74-1.08.32c-.12-.25-.33-.46-.45-.47-.28,0-1.14,1.21-1.38,2-.17.57-2.49,2.21-2.8,2A3.49,3.49,0,0,1,32,12c.09-.7.07-1.29,0-1.3s-.13-.4-.05-.87c.13-.71.26-.88.82-1s.65-.06.5.31c-.28.65.27.87.78.31.27-.29.51-.39.59-.24s1.07.23,1.1-.06a3.75,3.75,0,0,0-1.25-1.4,2.4,2.4,0,0,1-.55-.14c-.64-.24-.19-.52.5-.32,1.15.35,2.21.41,2.34.12a.22.22,0,0,0-.21-.31,1,1,0,0,1-.6-.41c-.14-.21-.36-.33-.48-.27s-.2,0-.2-.08.36-.37.77-.59c.75-.4,1-.73.53-.77a5.4,5.4,0,0,0-2.25.79c-.14.17-.15.07,0-.23s.1-.56,0-.65S33,6.16,32.91,6.72c0,.2-.1.3-.18.21s-.3,0-.5.2-.32.23-.12-.75A3.68,3.68,0,0,1,33.5,4.11a5.33,5.33,0,0,0,1.2-1.47c0-.56-1.15-.3-1.46.32-.48,1-.87.58-.66-.67.15-.92.1-1.27-.25-1.73L31.89,0ZM29.53,8.05c.11,0,.34.24.6.59a2.32,2.32,0,0,1,.56,1.62,1.8,1.8,0,0,1-.17.78,2.7,2.7,0,0,1-.41-1.33,2.07,2.07,0,0,0-.36-.87,1.38,1.38,0,0,1-.27-.74S29.5,8,29.53,8.05Zm-.89,3.38a3,3,0,0,1,1.58,1.38c.23.83,0,1-.43.3a1.29,1.29,0,0,0-.66-.55c-.27,0-.82-1-.64-1.12a.24.24,0,0,1,.15,0Zm6.2,2.5A.84.84,0,0,1,35,14c.38.14.27.27-.69.87a4.57,4.57,0,0,1-1.6.7c-.24,0-.44.07-.45.18s-.14.17-.27.16-.2-.26-.13-.54c.11-.45.24-.5,1-.36s.87.07.9-.21a.37.37,0,0,1,.39-.34.34.34,0,0,0,.38-.29.22.22,0,0,1,.27-.22Zm-3,3.09.52.32a1.88,1.88,0,0,0,1.1.23c.33-.05.57,0,.56.15a.25.25,0,0,1-.25.22,2.05,2.05,0,0,0-.55.07,1.18,1.18,0,0,1-.86-.45L31.82,17Zm2.51.82a.61.61,0,0,1,.23.17c.24.24.33.26.35,0s.13-.19.27-.08.11.27-.2.46c-.65.39-.85.32-.79-.26C34.21,17.93,34.24,17.82,34.33,17.84ZM37.77,19c.2,0,.3.13.2.26s-.61.24-.58-.06C37.4,19.09,37.57,19,37.77,19Zm-5.85,3.23c.13,0,.19.54.13,1.19-.11,1.18-.16,1.28-.41,1S31.67,22.22,31.92,22.25Zm-2.07,2.94a.13.13,0,0,1,.13.16.23.23,0,0,1-.25.22c-.3,0-.29-.19,0-.35Zm1.84.68s0,0,0,.06a1.34,1.34,0,0,1-.06.7c-.08.22-.12.09-.09-.29S31.65,25.87,31.69,25.87Zm-2.92-.15c.13,0,.23.07.22.12s-.12.16-.25.23-.24,0-.23-.12A.25.25,0,0,1,28.77,25.72Zm-1.21.36c.13,0,.23.06.22.12s-.12.16-.26.23-.23,0-.22-.13A.24.24,0,0,1,27.56,26.08Zm-4.86-.45a.82.82,0,0,1,.48.36,1.08,1.08,0,0,0,1.67.33c.43-.42,1-.37.66.05-.08.11,0,.22.2.24a.64.64,0,0,0,.52-.18c.22-.29.61-.26.58.05,0,.13-.32.33-.68.43a10.16,10.16,0,0,1-2,.18c-1.17,0-1.36-.06-1.54-.5a1.85,1.85,0,0,1-.18-.75A.23.23,0,0,1,22.7,25.63ZM43,40a.25.25,0,0,1,.23.26c0,.3-.2.28-.35,0C42.78,40.1,42.83,40,43,40ZM23.18,41c.14,0-.15.19-.66.41-.89.37-1.39.45-1.37.22a5.59,5.59,0,0,1,2-.63ZM42.42,52.86a2.17,2.17,0,0,1,.66.14c.31.16.15.2-.56.14a2.9,2.9,0,0,1-1-.16C41.55,52.85,42,52.82,42.42,52.86Zm5.1,1.75a.48.48,0,0,1,.26.07c.18.09.12.13-.16.12s-.38-.08-.29-.15A.23.23,0,0,1,47.52,54.61ZM47,60.43h0a1.27,1.27,0,0,1,.56.28c.18.14.23.25.1.23a1.39,1.39,0,0,1-.56-.28C47,60.55,47,60.45,47,60.43ZM5.46,66.06c.11,0,.14,0,.07.14a.5.5,0,0,1-.38.2c-.34,0-.25-.2.17-.32Zm3.59,2.36.48.62.47.62.46-.58c.41-.52.47-.53.64-.13s.25.36.41.16.24-.13.32.23c.11.52.53.76.57.33,0-.13.31-.21.66-.17l.65.06-.74.3a3,3,0,0,1-1.72.1c-.54-.11-.93-.1-.87,0,.16.32-.19.23-.87-.21-.35-.23-.63-.3-.69-.17s-.28.13-.5,0c-.38-.19-.36-.23.16-.7Zm5.4.76a.58.58,0,0,1,.14,0c.17.08.05.17-.27.23s-.49,0-.3-.13a.63.63,0,0,1,.43-.13Zm-3.27,9.41c.08,0,.14,0,.13.15a.24.24,0,0,1-.25.23c-.3,0-.29-.19,0-.35A.16.16,0,0,1,11.18,78.59Z"/></g></g></g></svg>