<svg xmlns="http://www.w3.org/2000/svg" viewBox="0 0 91.29 172.48"><g id="Layer_2" data-name="Layer 2"><g id="tree-1"><g id="layer1"><path fill="#0e0603" id="path2652" class="cls-1" d="M52.88,0l-.14,1.08c-.07.59-.25,2.37-.42,4L52,8l-1.3-1.8C49.24,4.05,49,4,48.92,5.31a7,7,0,0,0,1.27,3,5.6,5.6,0,0,1,1.21,4.48c-.07,1.66-.24,2.39-.5,2.18a1.31,1.31,0,0,1-.33-1c0-.35-.12-.65-.33-.67s-.33-.8-.26-1.75c.16-2-.71-3.41-1.41-2.37a1.75,1.75,0,0,0-.27,1.15c.15.66-.94.15-1.62-.76a1.71,1.71,0,0,0-1-.65c-1.05-.08-1,1.18.17,3,1.36,2.11,1.41,2.51.38,2.73-.51.1-.71.44-.62,1,.14,1,1.17,1.22,1.94.48.58-.56.59-.53.55,1.14,0,1.39-.11,1.42-1.37.45s-1.5-1-1.58.05a3.67,3.67,0,0,0,1.11,2.08c.88.92,1,1.16.36.92s-.9-.07-1.09.37c-.41,1-.68.87-3.12-1.27a7.46,7.46,0,0,0-2.61-1.75c-.84.29-.46,2,.61,2.82l1.09.8-1.06.05a1.62,1.62,0,0,0-1.3.65c-.27.63.65,1.34,1.27,1,.21-.12.37,0,.35.25s.27.5.64.55.52.14.11.29-.37.41.27,1l.85.85L41,26.6c-1.71.18-2.15.86-1.22,1.89a.9.9,0,0,0,1.2.21c.78-.41,2.14,0,2.09.57,0,.21.32.43.75.46s.79-.13.81-.38.43-.4.91-.36l.88.09-1,.82c-.8.65-.92.91-.52,1.24A1.62,1.62,0,0,0,47,30.69c.2-.26.22.08,0,.75-.27,1-.2,1.21.45,1.26.44,0,.82-.18.86-.49s.13-.34.24.09.33.36.76-.38l.58-1,.39,1.26c.21.69.25,1.39.08,1.55a9.74,9.74,0,0,1-3.14.24c-2.61-.06-3-.18-4.59-1.56s-2.84-1.67-2.92-.72c0,.21.43.74,1,1.16l1,.78-1.34-.4A11,11,0,0,1,36,30.12a1.94,1.94,0,0,0-1.22-.67c-.8-.06-1.07.78-.51,1.53.22.29-.4.45-1.67.44a9.2,9.2,0,0,0-2.36.17c-1.35.8,1.68,2.68,4,2.49L35.83,34l-1.15.62c-.7.37-1.14.92-1.09,1.37.1,1.1,1.81.87,3-.4.54-.59,1.26-.95,1.63-.81.52.19.44.33-.41.65C36.44,35.9,36,36.6,36.75,37a.74.74,0,0,1,.37.89.68.68,0,0,0,.31.84c.3.16.55.12.57-.09s1.34-.88,2.29-.92a3.33,3.33,0,0,0,1.34-.79c.49-.43.87-.63.86-.45,0,.46-1,1.29-2,1.83-.51.25-.93.65-.95.9-.06.83,1.13,1.06,1.92.36s.78-.66.51.21c-.4,1.27.41,1.2,1.31-.11.56-.81.82-.93,1-.47s.34.5.66,0a1.13,1.13,0,0,1,1.11-.4c1.55.35,3.74-1.07,3.93-2.56.1-.81.13-.78.3.2s-.07,1.36-1.31,2.45a23.9,23.9,0,0,1-4,2.55l-2.53,1.24-1.78-1.21a16.18,16.18,0,0,0-2.27-1.35c-.68-.21-.66.66.05,1.78.55.87.54.9,0,.32-.34-.35-.78-.54-1-.42s-.82-.12-1.39-.52c-1.37-1-1.82-.95-1.63,0,.12.64-.08.76-1,.65a2.72,2.72,0,0,1-1.35-.4c-.43-.57-1.75.12-1.82,1,0,.68.12.85.76.71.8-.17.8-.14.09.62s-.67,1,.82.95c.68,0,.81.15.56.72s-.13.72.69.62,1,0,.74.65c-.28.89,0,1,1,.5s2.06,1.43,1.2,2.2c-.47.43-.61.4-.73-.12-.09-.35-.76-.69-1.52-.79s-1.28,0-1.18.24-.16.27-.58.11c-1-.37-1,.3-.13,1.06a1.47,1.47,0,0,1,.4,1.69c-.34,1.38-.41,1.39-1.73-.1A4,4,0,0,0,29,50.37c-.66,0-.71.16-.29,1.27.34.9.08.9-2.82,0-.95-.29-1.45-.26-1.47.05-.05.57,1.87,2,2.79,2.08.53,0,.56.16.12.66s-.43.69,0,.92a1.9,1.9,0,0,0,.91.24c.83-.11,1.32.19,1.18.7-.08.33.28.56.94.6.82.05,1.06.27,1,1-.06.88,0,.87.79-.07.67-.78.84-.83.79-.25,0,.41.12.64.35.51s.54.28.7.93a2.65,2.65,0,0,0,.86,1.48,1,1,0,0,1,.52.92.63.63,0,0,0,.58.67,1.61,1.61,0,0,1,1.07.85c.41.76.5.76,1.43,0l1-.8-.77.87a7.13,7.13,0,0,1-3.49,1.39c-3.51.66-4.33.56-5.65-.6s-1.87-.95-1.62.33c.14.72,0,.86-.94.79a2.37,2.37,0,0,1-1.48-.57c-.24-.32-.62-.29-1.15.09-.78.54-.76.6.38,1.48.86.66,1.11,1.13.9,1.7s-.09.77.25.74c1.14-.08,1.56.17,1.29.79-.46,1.08.92,1.72,2.07,1,.76-.5.86-.52.47,0-.73.87-.18,1.9.87,1.61,1.52-.41,1.85.47.36,1-1.92.61-3.78.45-4.41-.4s-1.89-1-1.66-.14c.14.55-.14.6-1.55.26-2.07-.5-2.4.22-.53,1.17.91.46,1.21.86,1,1.39-.28.89.91,1.49,1.91,1,.54-.28.66-.14.59.73s.06,1.06.77.92.8-.06.53.56-.17.75.48.62c.44-.1.79,0,.77.22-.06.78.8.46,1.94-.72,1.37-1.41,2.13-1.69,3-1.08s.71,1.2-.56.88-1.57.32-.74,2c.5,1,.49,1-.23,1a2.1,2.1,0,0,0-1.42.56,2,2,0,0,1-1.22.57,1,1,0,0,0-.85.34c-.14.22-.94.33-1.77.25a4.71,4.71,0,0,0-2.05.17,3.45,3.45,0,0,1-1.78.12c-1-.16-1.28,0-1.45.8s-.48,1-1.18,1a8.37,8.37,0,0,0-1.38.06,3.14,3.14,0,0,1-1.07-.06c-.37-.07-.69,0-.71.25-.05.59,2,2.07,3,2.15s.86.09.11.9-.76.83.24.91c.77.06,1,.24.74.74s-.08.63.85.46a9.71,9.71,0,0,1,1.34-.18c1.22.12,1.49.29,1.26.82-.5,1.17.51,1.22,1.19.06s.67-1.13.61-.19c0,.54.07,1,.23,1.06,2.35.59,2.75.49,3.33-.79l.6-1.29.26,1.08.25,1.1.84-1c.84-1,.84-1,.77,0-.1,1.34.6,1.32,1,0,.18-.6.5-1.07.71-1.06s.22.24.06.5.08.4,1,.26,1.24-.09,1.09.32c-.31.8-2.86,2-4.06,1.89-.57,0-1.14.16-1.26.45s-.92.46-2,.35-1.81,0-1.82.16c-.07.85,1.2,1.89,2.28,1.84.65,0,1.19.13,1.2.36,0,.75-2.27,1-7.84.78-6.28-.23-8.81-.12-8.85.36,0,.18-.46.2-1,0s-1-.08-1,.19c0,.62,1.16,1.5,2.19,1.58.44,0,.8.27.78.51a.44.44,0,0,1-.45.41,3,3,0,0,0-1.34.82l-.93.88,1.28-.1c.85-.06,1.27.09,1.24.45s.28.48.76.38.77,0,.75.33c-.06.71.94.69,1.57,0a1.58,1.58,0,0,1,.93-.6c.23,0,.1.37-.29.79a3.3,3.3,0,0,0-.74,1c0,.47,1.46.48,1.77,0,.44-.69.94-.44,1.13.53.22,1.15.67,1.17,2.17.15l1.2-.82-.35,1.33c-.43,1.65.27,1.84,2,.55,1.11-.84,1.14-.84.66,0-.57,1-.38,1.5.46,1.21a1.19,1.19,0,0,1,1.11.39c.37.41.55.45.58.1a.55.55,0,0,1,.62-.45.62.62,0,0,1,.54.67c0,.43.3.62,1,.59,4.09-.2-1.36,2.06-6.15,2.54-3.12.31-3.43.26-4.38-.58a4.09,4.09,0,0,0-1.51-.94c-.8-.07-.62.84.28,1.37.62.37.38.38-.88,0a15.88,15.88,0,0,0-2.71-.46A11.14,11.14,0,0,1,13,109a6.84,6.84,0,0,0-2-.66c-.45.43,1.9,2.45,3.27,2.82l1.63.44-1.46-.06c-1,0-1.48.14-1.52.6a.77.77,0,0,0,.62.79,10.65,10.65,0,0,1,1.06.25,5.88,5.88,0,0,0,.94.23c.41.07.34.25-.25.66-1,.72-.62,1.34.51.77.7-.35.85-.3.8.3s.22.7,1.22.63a12.13,12.13,0,0,0,2.09-.36c.79-.26.78-.26,0,.37s-.67.82.61.77a.6.6,0,0,1,.63.68c-.07,1,.25.9,1.27-.2l.87-.93-.73,1.15a5.76,5.76,0,0,0-.76,1.61c-.05.68,1.9.33,2.89-.52.82-.72.83-.7.45.36-.54,1.46-1,1.74-4.73,2.68-3.06.77-3.24.77-4.79-.06-1.7-.9-4.1-1.31-4.15-.71a2,2,0,0,0,.39.94c.29.38-.23.28-1.58-.3a6,6,0,0,0-2.63-.65c-.53.18-.5.4.18,1.38l.81,1.14-1.28-.53c-1.65-.69-3.71-.85-4.06-.32s2.15,2,3.69,2.09l1.23.1-1.23.94c-1.21.94-1.31,2.29-.14,1.89.39-.14.54.14.48.9s.12,1.11.66,1.15a2.07,2.07,0,0,1,1.29.79c.45.6.68.63,1.38.22.46-.27.86-.65.88-.83s.3,0,.66.49c.68.88.8,2,.22,1.92-.19,0-.23.19-.11.47s-.14.4-1,.12-1.2-.24-1.23.07-.79.42-1.79.34c-1.82-.14-2.2.21-1.27,1.24.36.4,1.17.56,2.41.48l1.87-.11-1.52.75c-1.05.53-1.47,1-1.34,1.47a.57.57,0,0,0,.83.45,6.12,6.12,0,0,1,1.25-.3c.32,0,.37,0,.09.09-1,.31-.56,1.06.52.87.78-.15.92-.09.48.19-1.09.69-.19,1,1.1.37.7-.34,1.25-.43,1.23-.2a.8.8,0,0,1-.54.59.35.35,0,0,0-.23.55c.16.22.8.22,1.44,0,.95-.32,1.12-.28.91.21s-.05.53.48.36.67-.13.2.35-1.79.46-6.18,0c-3.39-.34-5.62-.38-5.65-.13s.24.46.58.48a1.84,1.84,0,0,1,1.1.72c.43.57.41.69-.13.88a6,6,0,0,1-1.86.11c-1.43-.11-2.46.39-2.17,1,.37.82,2.29,1.11,3.94.61,2.2-.67,2.31-.61,1.11.55-1.5,1.45-1.48,2.4,0,2a8.14,8.14,0,0,0,1.61-.54c.23-.14.41.12.41.56V148a1.74,1.74,0,0,0,.24.86c.28.37,2.74-.93,2.79-1.47,0-.21.18-.25.37-.08s.19.68-.11,1.38a7.41,7.41,0,0,0-.49,1.53c0,.58,1.92-.78,3.93-2.73,1.51-1.46,1.68-1.18.26.42a1.9,1.9,0,0,0-.44,1.48c.17.69.3.66,1.27-.21l1.09-1-.22,1.09c-.2,1-.48,1.12-3.38,1.43-2,.21-3.37.16-3.73-.14-.92-.76-3-1.34-3-.84,0,.25.26.56.62.71s-.2.09-1.26-.11c-1.55-.28-1.85-.23-1.49.24.67.92.48,1.22-.56.91-1.24-.38-3,0-2.79.57a1.42,1.42,0,0,0,1.08.52c1.67.13,1.38.72-.72,1.48-3.58,1.3-2.92,2.53.75,1.4,1.85-.58,2.55-.4,1.16.3a1.67,1.67,0,0,0-.9,1.12c0,.54.19.65,1,.49s1-.14.51.44c-1.17,1.36-.06,1.45,1.8.15.86-.61.89-.6.59.37s-.24,1,.39.45.67-.47.38.25-.2.7.72-.11c1.07-.94,1.67-.81,1.21.27-.37.85.58.81,2.14-.09.74-.44,1.32-.56,1.3-.29s.38.41,1.05.29.89-.07.48.17a12.59,12.59,0,0,1-2.8.67c-2.58.4-3.41.82-3.08,1.57.23.51.76.5,3.15,0,.61-.13.48.14-.58,1.13a7.61,7.61,0,0,0-1.39,1.5c0,.44,2.17.07,3.47-.59s1.62-.44.61.85c-.89,1.12-.86,1.65.09,1.45.52-.11.78.06.75.47-.07.82.29.81,1.27-.05.78-.68.81-.68.61.16-.31,1.33,1.88,1.1,3.15-.33l1-1.12-.37,1.42c-.49,1.88.48,2,2.14.28a9,9,0,0,1,1.33-1.23,2.74,2.74,0,0,1,.1,1.17c0,1.74.55,2.26,1.44,1.25.71-.79.8-.8,1.22-.06s.47.72.76-.15c.19-.57.52-.84.83-.67s.63-.15.86-.89.45-1,.63-.59a1.73,1.73,0,0,0,1.06.79c.62.16,1-.21,1.82-1.7,1-1.93,2-2.63,1.37-1-.38,1-.16,1.09,1.17.25a2.56,2.56,0,0,0,1.13-1.57c.1-.76.16-.79.25-.15.19,1.31.87.47,1-1.29.12-1.32.2-1.47.47-.82a1.49,1.49,0,0,0,1.14.87c.77.07.79.23.27,3.48a17.12,17.12,0,0,1-1.66,5.47c-.44.81-.81,1.53-1,1.93l9.69.78c.46-.35.32-1.06,0-2.3-.54-1.93-.49-5.79.06-6,.22-.06.66.5,1,1.26.6,1.42,1.43,2,1.13.77-.35-1.4.31-.59.72.88.33,1.18.64,1.55,1.35,1.55a2.27,2.27,0,0,1,1.44.5c.37.37.57.37.71,0s.43-.2.88.41c.92,1.22,1.42,1.2,1.28,0-.06-.59,0-.81.18-.51.39.69,1.6,1.26,1.64.78s2.17-.11,3.25.5c.57.33.69.25.54-.33-.1-.4,0-.79.29-.88s.39-.31.06-.79c-.8-1.13-.42-1.24,1-.28,1.54,1.06,2,1,1.31-.27-.37-.67-.37-.71,0-.27a1.06,1.06,0,0,0,1,.38c.31-.11.55,0,.54.2a3.32,3.32,0,0,0,.43,1.3c.41.76.58.8,1.18.33s.75-.41,1.23.53l.55,1.07.44-1c.4-1,.46-1,.87-.21.54,1,.82,1,1.65.23.52-.51.56-.77.23-1.32-.24-.38-.31-.68-.17-.67s.09-.45-.11-1c-.32-.87-.18-.81.83.41,2.23,2.69,2.38,2.79,3.13,2.06a1.3,1.3,0,0,0,.43-1.23c-.14-.33.06-.26.45.16,1.91,2.05,4,2.59,2.7.71-.57-.85-.54-.91.49-1.12l1.09-.22-1.06-1.14c-1.38-1.51-.58-1.45,1.45.12a7.68,7.68,0,0,0,2.1,1.28c.79.07.62-.65-.29-1.25s-.69-.54.73-.45a4.46,4.46,0,0,0,2.39-.49c.77-.56.77-.6-.34-.7a43.2,43.2,0,0,1-8.69-2.54c-1.46-.83-1.66-1.93-.21-1.17,1.26.67,2,.26,1.06-.62-.52-.52-.33-.56,1.14-.3,1.89.32,2.33-.19,1-1.12-.73-.5-.59-.54,1.05-.32,2.22.31,2.92-.48,1-1.17l-1.25-.46,1.28-.06c1.5-.09,1.66-.53.5-1.35-.68-.47-.38-.5,1.68-.14,2.31.41,2.44.39,1.8-.3a2.66,2.66,0,0,0-1.39-.79,1.13,1.13,0,0,1-.89-.56c-.14-.32.11-.45.69-.35,1.61.28,2.67.22,2.71-.17,0-.21-1.2-.62-2.69-.91s-2.61-.69-2.49-.87a7.19,7.19,0,0,1,2.57-.74c2.44-.41,4-1.19,3.59-1.77-.22-.3-2.42-.07-5.39.57-.91.19-.88.11.44-1,2.16-1.81,1.05-2.1-2-.53s-4.73,1.6-7.85.08c-3.54-1.73-9.18-5.62-9.55-6.59-.45-1.2-.14-1.15.75.14.39.57.74.87.75.68s.27-.09.57.24c.45.49.55.46.61-.21s.24-.57,1.17.6l1.12,1.4-.12-1.44c-.12-1.43-.1-1.44.9-.85A9,9,0,0,1,71.05,144c1.4,1.44,1.58,1.43,1.43-.16-.11-1.18,0-1.39.29-.93.61.82,2.22.87,2.28.06s.7-.82,1.06,0a5.53,5.53,0,0,0,1.27,1.48c.83.72,1,.76,1.06.23a2.66,2.66,0,0,0-.66-1.5,2.82,2.82,0,0,1-.68-1.32c0-.25.12-.31.24-.15s.53,0,.89-.35a2.12,2.12,0,0,1,2.11-.3c1,.24,1.52.16,1.69-.24s.55-.46,1.51-.06c3.34,1.4,4.07.17.87-1.46-2.16-1.1-2.41-1.59-.37-.74,2.6,1.08,6.11.7,4.74-.51a5.54,5.54,0,0,0-2.3-.69c-1.48-.17-1.58-.22-.59-.38a1.93,1.93,0,0,0,1.38-.79c.19-.51-.42-.61-3.75-.62-3.92,0-4,0-3.43-.85.82-1.24.35-1.51-1.65-.91A7.62,7.62,0,0,1,75,134c-2.23-.5-9.45-3.94-10.25-4.88s-.74-1.62.19-1.2c.43.19.77.14.8-.12,0-.47.61-.29,2.48.83a8.83,8.83,0,0,0,3.09.85c1.08.1,2.13.23,2.33.29.89.27,1,0,.41-1-.44-.7-.29-.62.43.26,1.24,1.49,1.61,1.64,1.69.68,0-.59.17-.58,1,.14.55.49,1.06.67,1.24.44a4.55,4.55,0,0,1,1.5-.88c1.16-.47,1.19-.51.51-1.17-.82-.81-.59-.85.75-.14.72.39,1,.38,1-.06s1-.73,2.62-1c1.42-.22,2.6-.58,2.62-.8s.18-.24.38-.08a1.14,1.14,0,0,0,1.09-.08c.62-.33.58-.43-.34-.78s-1-.58-.77-1.17.06-.83-.59-1-.15-.43,1.62-.91c2.73-.75,3.46-1.57,1.09-1.23-2.19.3-7.55,0-7.51-.46a.38.38,0,0,1,.42-.34.42.42,0,0,0,.42-.41c0-.24-.8-.49-1.81-.55-2.56-.15-6.57-1.45-6.76-2.2-.11-.43.16-.6.82-.55s1-.12,1-.35.29-.3.6-.13.58.06.61-.22.31-.25.85.25a3.43,3.43,0,0,0,1.79.83l1,.06-.83-.93-.82-.91h3.76l-1.31-.86-1.3-.86,1.19.09a2.94,2.94,0,0,0,2.21-1,3.21,3.21,0,0,1,1.42-1c.23,0,.69-.36,1-.83.81-1.24-.07-1.57-2.38-.89-2.49.74-3,.68-2.65-.39s.26-1.06-2.25-.35c-1.92.54-2.11.51-5-.69-3.9-1.63-4.83-2.92-1.76-2.47a1,1,0,0,0,.89-.39c.22-.34.54-.23,1,.37s1.06.83,2.32.7c1.79-.2,1.92-.36,1-1.36-.64-.71-.38-.67,1.22.23.58.31.69.24.54-.37s0-.73.61-.68.76-.15.65-.59a.71.71,0,0,1,.31-.84c.34-.13.32-.38-.1-.84s-.51-.73.42-1.6c1.53-1.42,1.3-1.76-.82-1.18-5.26,1.45-7.15,1.41-8.28-.21-.64-.91-.66-1.15-.17-1.32a2.88,2.88,0,0,1,1.73.39c1.61.85,2,.17.74-1.22-.9-1-1-1.14-.31-1,1.35.24,2.14.13,2.18-.32,0-.25-.27-.48-.64-.53-.56-.07-.53-.15.16-.4a2.24,2.24,0,0,0,1.15-1c.26-.59.18-.63-.61-.21-1.43.75-9.53,0-11.17-1.08-1.14-.74-1.2-.84-.39-.8s.91-.14.8-.9-.08-.87.46-.25c.79.89,1.92,1.45,2,1,0-.21.37-.26.79-.1s.78.07.8-.2.47-.45,1-.41c1.29.11,1.27-.34-.12-1.86L69.56,87.6l2,.54c2.12.56,2.91.46,2.57-.32s.78-1.66,2-1.57,1.57-.61.34-1c-.49-.16-.28-.22.5-.12s1.33,0,1.3-.37.13-.53.37-.51.3-.21,0-.7a1.38,1.38,0,0,0-1.47-.59c-.56.08-.79.07-.51,0,.93-.37.59-1.11-.42-.91-.81.17-.92.07-.67-.52s.15-.64-.25-.4a3.84,3.84,0,0,1-1.56.34,10.5,10.5,0,0,0-2,.24l-1,.22,1.16-1c1.33-1.11,1.57-1.8.41-1.22s-1.93.45-1.27-.18c1-.93.67-1.74-.3-.86A9.56,9.56,0,0,1,68.6,80c-2.48,1.09-8.76-1.18-8.6-3.1a2.18,2.18,0,0,0-.38-1.28c-.28-.38-.27-.54,0-.52s.5.34.59.71.65.7,1.46.73a6.72,6.72,0,0,1,2.13.45c.7.33.87.22.93-.54l.07-.91,1.26,1c.9.71,1.34.87,1.57.51a.77.77,0,0,0-.18-.95c-.43-.39,1.84-.16,3.35.35a3.32,3.32,0,0,0,1.3-.14c.85-.23.87-.32.36-1.08s-.48-.84.46-1c1.15-.23,1.44-1,.41-1.16-.43,0-.23-.25.54-.58A12.25,12.25,0,0,0,76.33,71l1.21-1-1.39-.42c-.78-.23-1.4-.61-1.38-.85s-.43-.34-1.06-.22c-1,.19-1,.14-.55-.42.83-1-.26-1.38-1.49-.55a5.26,5.26,0,0,1-2.9.55c-1.54-.1-1.75-.21-1-.49s.89-.68.7-2.4a4.34,4.34,0,0,0-1.41.67,5.42,5.42,0,0,1-2.7.7c-2.42-.2-6.45-2.38-8.93-4.83-1-.94-.72-1.1.4-.29.59.43.74.38.8-.27s.09-.75.41,0c.19.45.51.72.71.61s.79.14,1.3.59c.92.8.92.79,1-.46.06-.7.22-1,.36-.76a4.44,4.44,0,0,0,2.27,1.71c.23,0,.48-.42.54-1,.12-1,.13-.94.3.13.1.62.27,1,.38.95s.54.08,1,.39c.62.45.88.4,1.36-.24.33-.44.74-.67.92-.53s.23-.26.14-.9c-.15-1.13-.11-1.15.87-.63,1.23.65,1.64.41,1-.58-.36-.6-.31-.7.26-.65s.65,0,.08-.85c-.33-.49-.42-1-.21-1.11s.66.18,1,.69c.54.79.91.89,2.45.67.08,0,0-.3-.23-.65-.45-.73-.11-1.19.84-1.11A3.07,3.07,0,0,0,75,56.77l1-.8-1.17-.18a16.34,16.34,0,0,0-2.12-.16c-.82,0-.88-.06-.38-.64.94-1.1.34-1.14-1.26-.1s-2.73,1.27-1.87.27c.46-.53.44-.61-.11-.42-.77.27-.83-.34-.1-1.05,1.09-1,0-1-1.31.1-2.6,2.11-2.91,2.17-5.57,1s-4.6-2.6-5.08-3.87c-.3-.78-.21-.88.63-.76a1.33,1.33,0,0,1,1.1.84,1.19,1.19,0,0,0,1,.83c.65.11.78-.06.66-.84s0-.82.68.31a3,3,0,0,0,1.68,1.35c.76.06.87-.1.76-1.24-.16-1.7.79-2.09,1.63-.66.58,1,2.72,1.8,2.78,1.07a5.21,5.21,0,0,0-1.14-1.62c-.9-1-1-1.3-.47-1.26a1,1,0,0,1,.86.71c.09.37.32.59.51.48s.43,0,.54.27a1.7,1.7,0,0,0,1.24.56c1,.08,1,0,.32-.62s-.66-.7.43-1.08a6,6,0,0,1,1.6-.35c.25,0,0-.3-.46-.68-.9-.68-.89-.69.57-.41A2.52,2.52,0,0,0,74,47.51c.93-.9.37-1.5-1.56-1.65-1.08-.09-1.64-.32-1.47-.58.56-.87-.87-1-2.56-.24-2.08.93-2.45,1-2.09.1.18-.41,0-.66-.33-.7s-.51-.29-.34-.69c.33-.76.2-.8-1.13-.35-.87.3-1,.23-.72-.5s-.35-1.24-.84-.48A7.36,7.36,0,0,1,61,43.65c-1.48.71-1.85.72-3.2.13s-1.41-.72-.83-1a1.48,1.48,0,0,0,.75-1c0-.53-.34-.68-1.72-.7s-1.93-.25-2.44-1c-.78-1-1.32-4.63-.76-5,.36-.21.47.75.23,2a4.5,4.5,0,0,0,.61,2c.59,1.12.85,1.3,1.32.93a2.75,2.75,0,0,0,.72-1.63c.11-.92.17-1,.27-.25a2.82,2.82,0,0,0,2.13,2.62c.79.06.88-.06.59-.82-.42-1.12-.39-1.53.08-1.13.2.17.38.09.4-.17a.44.44,0,0,1,.43-.43c.21,0,.37.31.34.65-.06.79,2,3.19,2.53,2.89a1.58,1.58,0,0,0,.46-1.08c0-.47.24-.84.47-.82s.33-.23.22-.54.08-.1.43.49.8,1,1,.78a2.33,2.33,0,0,1,1.18-.38c1.07-.08,2.71-.84,2.75-1.27,0-.17-.48-.6-1.09-1s-1-.86-1-1.14-.41-.56-1.07-.64c-1.35-.16-3.25-1.37-2.49-1.59a.9.9,0,0,0,.55-.78c.06-.7-1.87-1-2.53-.44s-2.2.86-2.17.39c0-.23.49-.51,1.06-.62.85-.17,1-.33.61-.9s-.28-.66.32-.63c.87.06,2.43-1,2.11-1.43a5.89,5.89,0,0,0-2-.66c-1.93-.41-1.92-.4-1.24-1.57.43-.77.53-.77,1.34-.06s.89.7,1.2-.14c.18-.5.48-.77.67-.62s.36.08.38-.18.39-.44.82-.4a.73.73,0,0,0,.83-.56c0-.68-.73-1.22-1.89-1.31-.89-.07-.94-.89-.08-1.19.33-.11.53-.36.45-.55s.3-.57.86-.85c1.38-.69,1.12-1.45-.55-1.59l-1.38-.11L63.81,19c.85-1.08,1-1.5.65-1.95s-.73-.25-1.83.91c-1.31,1.38-1.44,1.42-1.79.64-.21-.47-.56-.86-.77-.87-.46,0-1.89,2.34-2.27,3.8-.29,1.07-4.15,4.28-4.66,3.85a7,7,0,0,1,0-2.64c.15-1.33.12-2.44-.06-2.46s-.23-.75-.09-1.64c.21-1.36.43-1.67,1.36-1.87s1.08-.14.83.55c-.46,1.25.47,1.65,1.31.57.45-.57.84-.77,1-.48.23.51,1.8.37,1.84-.16a6.66,6.66,0,0,0-2.08-2.6,3,3,0,0,1-.92-.25c-1.08-.41-.31-1,.83-.61,1.91.61,3.68.67,3.9.12a.41.41,0,0,0-.36-.59,1.55,1.55,0,0,1-1-.75c-.24-.38-.6-.6-.8-.48s-.35.06-.33-.14.59-.71,1.27-1.15c1.25-.8,1.63-1.42.89-1.48A8.37,8.37,0,0,0,57,10.87c-.23.31-.26.14-.07-.44s.16-1.07,0-1.22c-.4-.34-2.2,2.39-2.29,3.45,0,.39-.16.57-.29.4s-.5,0-.83.41c-.52.63-.54.45-.21-1.42S54,9.48,55.58,7.71a10.52,10.52,0,0,0,2-2.83c.09-1.07-1.93-.53-2.43.65C54.35,7.4,53.7,6.68,54,4.3c.25-1.74.16-2.41-.43-3.25l-.73-1ZM49,15.32c.18,0,.57.45,1,1.1a4.64,4.64,0,0,1,.93,3,3.93,3.93,0,0,1-.28,1.47,5.4,5.4,0,0,1-.7-2.5,4.1,4.1,0,0,0-.58-1.63,2.61,2.61,0,0,1-.47-1.37C48.9,15.34,48.93,15.31,49,15.32Zm-1.47,6.43a5.15,5.15,0,0,1,2.64,2.55c.38,1.56.07,1.82-.71.58-.34-.54-.84-1-1.11-1-.45,0-1.38-1.83-1.07-2.08a.34.34,0,0,1,.25,0Zm10.34,4.46a1.17,1.17,0,0,1,.33.09c.63.24.45.49-1.15,1.67a7.5,7.5,0,0,1-2.65,1.4c-.41,0-.75.15-.76.35a.41.41,0,0,1-.46.32c-.23,0-.32-.48-.21-1,.18-.85.41-.95,1.66-.73s1.46.1,1.51-.43a.65.65,0,0,1,.64-.65.6.6,0,0,0,.63-.57c0-.3.18-.45.46-.43Zm-5,6,.87.58a2.85,2.85,0,0,0,1.83.39c.55-.11.94,0,.92.25a.43.43,0,0,1-.4.43,2.78,2.78,0,0,0-.93.16c-.31.11-.95-.26-1.43-.81l-.86-1ZM57,33.62a1.17,1.17,0,0,1,.38.33c.4.44.55.46.58.07s.22-.36.46-.17.18.52-.34.89c-1.08.75-1.4.64-1.31-.45C56.81,33.8,56.87,33.59,57,33.62Zm5.74,2.09c.33,0,.49.25.34.48-.36.55-1,.49-1-.08C62.14,35.87,62.41,35.69,62.75,35.71ZM53,42.06c.22,0,.31,1,.21,2.24-.18,2.25-.25,2.43-.67,1.87S52.58,42,53,42.06Zm-3.45,5.67c.15,0,.24.09.23.28a.43.43,0,0,1-.43.44c-.5,0-.47-.36.06-.67A.3.3,0,0,1,49.56,47.73Zm3.07,1.19s.06,0,.08.12a2.85,2.85,0,0,1-.1,1.33c-.13.42-.2.17-.15-.56C52.5,49.26,52.56,48.92,52.63,48.92Zm-4.86-.15c.21,0,.38.11.37.22s-.2.31-.43.44-.39,0-.37-.23A.43.43,0,0,1,47.77,48.77Zm-2,.72c.21,0,.38.12.37.23s-.2.3-.42.44-.4,0-.38-.23A.45.45,0,0,1,45.75,49.49Zm-8.11-.64a1.33,1.33,0,0,1,.81.66c.69,1.2,2,1.46,2.79.55s1.63-.74,1.1.08c-.14.21,0,.42.33.44a1,1,0,0,0,.87-.37c.36-.56,1-.51,1,.07,0,.25-.54.63-1.15.84a14.38,14.38,0,0,1-3.34.43c-2,0-2.27-.06-2.57-.88a4.46,4.46,0,0,1-.31-1.4C37.17,48.94,37.38,48.8,37.64,48.85ZM71.48,75.18a.44.44,0,0,1,.38.48c0,.57-.32.54-.58,0C71.16,75.36,71.25,75.16,71.48,75.18Zm-33,2.69c.24,0-.26.38-1.09.8-1.49.75-2.32.92-2.28.49,0-.28,2.8-1.34,3.37-1.29ZM70.6,99.49a2.7,2.7,0,0,1,1.1.26c.52.28.25.35-.92.28a4.14,4.14,0,0,1-1.65-.27C69.15,99.53,69.88,99.44,70.6,99.49Zm8.52,3.09a1.16,1.16,0,0,1,.43.12c.3.17.19.26-.27.25s-.63-.14-.49-.28A.48.48,0,0,1,79.12,102.58Zm-.79,11s0,0,.07,0a2.32,2.32,0,0,1,.94.51c.3.26.37.47.16.45a2.2,2.2,0,0,1-.94-.51C78.3,113.84,78.2,113.65,78.33,113.62ZM9.05,126c.19,0,.23.08.12.26a.88.88,0,0,1-.64.4c-.56,0-.41-.37.28-.61A1.48,1.48,0,0,1,9.05,126Zm6,4.31.8,1.16.79,1.14.76-1.1c.69-1,.78-1,1.08-.28s.41.67.67.28.4-.26.53.43c.19,1,.89,1.41,1,.59,0-.24.52-.4,1.1-.35l1.07.08-1.22.61a4.46,4.46,0,0,1-2.86.26c-.9-.19-1.56-.14-1.46.08.27.59-.31.44-1.45-.37-.58-.41-1.06-.53-1.15-.29s-.47.26-.84.06c-.62-.33-.6-.42.28-1.33Zm9,1.22a.59.59,0,0,1,.23,0c.28.14.09.33-.45.44s-.81.07-.5-.23a1,1,0,0,1,.72-.25Zm-5.43,17.92c.14,0,.24.09.23.29a.45.45,0,0,1-.43.44c-.5,0-.47-.36,0-.67Z"/></g></g></g></svg>
