<svg xmlns="http://www.w3.org/2000/svg" viewBox="0 0 52.98 91.09"><defs><style>.cls-1{fill:#0e0603;}</style></defs><g id="Layer_2" data-name="Layer 2"><g id="tree-5"><g id="layer1"><path id="path2652" class="cls-1" d="M24.14,0l0,.57c0,.32,0,1.27-.06,2.11l0,1.54-.87-.89C22.16,2.29,22,2.25,22,3a3.51,3.51,0,0,0,.9,1.52,2.77,2.77,0,0,1,.95,2.31c0,.88,0,1.27-.2,1.17a.67.67,0,0,1-.24-.5c0-.18-.11-.33-.23-.33S23,6.72,23,6.22c0-1-.59-1.77-1-1.19a.8.8,0,0,0-.11.62c.13.34-.55.11-1-.33a1.06,1.06,0,0,0-.62-.3c-.63,0-.53.66.24,1.54.92,1.06,1,1.27.36,1.43a.4.4,0,0,0-.32.56c.13.5.76.59,1.19.17s.32-.3.38.58c0,.73,0,.75-.8.29s-.94-.44-.94.1a1.89,1.89,0,0,0,.76,1c.57.45.64.57.26.47s-.54,0-.63.25c-.2.52-.37.48-1.93-.54a4.51,4.51,0,0,0-1.65-.81c-.49.18-.18,1.08.51,1.46l.69.37-.64.07c-.34,0-.68.22-.74.4-.14.34.45.68.8.46.12-.07.22,0,.22.12s.19.25.41.26.32,0,.08.15-.2.23.22.54l.55.41-1,.17c-1,.17-1.25.55-.64,1.05a.59.59,0,0,0,.73.06c.44-.25,1.28-.11,1.28.21,0,.11.21.21.46.21s.47-.1.47-.23.24-.23.53-.23h.53l-.58.48c-.45.37-.51.52-.26.67a1,1,0,0,0,1.26-.33c.12-.14.14,0,.06.4-.11.53-.06.64.33.64s.49-.13.49-.29.06-.19.15,0,.22.18.43-.23l.3-.56.3.64c.16.35.22.72.12.81a6.39,6.39,0,0,1-1.87.26,3.49,3.49,0,0,1-2.82-.62c-1-.65-1.78-.76-1.78-.26,0,.11.29.37.64.57l.65.37L18.28,18a6.92,6.92,0,0,1-2.78-1.44,1.22,1.22,0,0,0-.76-.3c-.48,0-.61.45-.23.83.14.14-.22.25-1,.3a5.72,5.72,0,0,0-1.4.19c-.78.47,1.13,1.34,2.5,1.14l.95-.13-.66.37c-.4.23-.64.53-.59.77.12.58,1.13.38,1.78-.33.3-.34.71-.56.94-.5s.28.15-.22.36c-.8.33-1,.71-.55.9a.37.37,0,0,1,.26.45.35.35,0,0,0,.23.43c.18.07.33,0,.33-.07s.76-.53,1.33-.58a2.18,2.18,0,0,0,.77-.48c.27-.24.49-.37.49-.27s-.52.72-1.13,1.05c-.28.15-.52.38-.52.51,0,.44.73.51,1.17.11s.44-.38.31.09c-.17.68.31.61.78-.11.3-.46.45-.53.6-.3s.23.25.39,0a.73.73,0,0,1,.65-.26c.94.12,2.19-.72,2.22-1.52,0-.42.05-.41.2.1s0,.72-.67,1.34a14,14,0,0,1-2.29,1.52L20,23l-1.13-.56a10.31,10.31,0,0,0-1.42-.62c-.42-.08-.36.37.12.94s.36.45,0,.17-.49-.25-.6-.19a1.3,1.3,0,0,1-.86-.21c-.86-.45-1.13-.42-1,.08.1.33,0,.4-.57.38a1.92,1.92,0,0,1-.83-.15c-.29-.29-1,.13-1,.58s.11.44.49.34.47-.11.08.33-.36.53.53.46c.41,0,.5,0,.38.36s-.05.38.44.29.57,0,.47.31,0,.54.61.23,1.3.66.83,1.1c-.26.25-.34.24-.45,0s-.48-.33-.94-.35-.77.06-.7.18-.08.15-.34.08c-.59-.16-.61.2,0,.56a.73.73,0,0,1,.33.87c-.14.75-.18.75-1,0a2.46,2.46,0,0,0-1-.59c-.39,0-.41.12-.11.68s.09.47-1.68.14c-.58-.12-.88-.08-.88.08s1.21,1,1.77,1c.32,0,.34.06.1.34s-.22.38.06.49a1.16,1.16,0,0,0,.55.08c.49-.09.8.05.74.32s.19.29.59.28.65.1.65.47,0,.46.47-.08.46-.47.46-.16.11.33.24.25.33.13.46.46a1.36,1.36,0,0,0,.59.74.59.59,0,0,1,.36.47.35.35,0,0,0,.38.33,1,1,0,0,1,.68.4c.28.38.33.38.85-.06l.55-.46-.42.49a4.46,4.46,0,0,1-2,.88c-2.07.5-2.57.48-3.41-.07s-1.17-.42-1,.24c.12.37,0,.45-.52.45a1.58,1.58,0,0,1-.91-.23q-.24-.24-.69.09c-.44.32-.43.35.3.77.55.31.72.55.62.85s0,.41.19.38c.67-.09.94,0,.81.37-.22.58.63.86,1.28.41.43-.29.49-.31.28,0-.4.49,0,1,.6.81.89-.28,1.13.17.26.49a3,3,0,0,1-2.66,0c-.46-.47-1.18-.47-1,0,.11.28,0,.32-.92.2-1.26-.17-1.42.22-.25.64.56.21.76.4.69.69-.13.48.61.74,1.18.43.32-.18.39-.11.39.35s.09.56.51.45.47-.06.34.28-.06.4.32.3.48,0,.48.09c0,.41.49.2,1.12-.46s1.2-1,1.75-.7.48.6-.29.49-.93.23-.35,1.07c.34.48.34.52-.09.52a1.34,1.34,0,0,0-.83.35,1.2,1.2,0,0,1-.7.35.63.63,0,0,0-.49.22,1.81,1.81,0,0,1-1.05.21,3.19,3.19,0,0,0-1.22.17,2.3,2.3,0,0,1-1.06.14c-.62,0-.76,0-.83.49s-.24.53-.66.55a7.19,7.19,0,0,0-.82.09,2.21,2.21,0,0,1-.64,0c-.23,0-.41.06-.41.17,0,.31,1.29,1,1.88,1s.52,0,.11.47-.41.47.19.47.58.09.48.36,0,.33.53.2c.37-.08.73-.15.79-.15.74,0,.91.09.79.38-.24.64.37.62.72,0s.35-.62.36-.13c0,.29.09.54.19.55,1.43.21,1.67.14,1.95-.55l.3-.71.2.56.21.56.45-.58c.45-.59.45-.59.46-.06,0,.71.42.67.61-.06.08-.32.25-.59.37-.59s.15.12.06.26.07.21.6.1.74-.1.67.12A3.66,3.66,0,0,1,16.6,49.6c-.34,0-.67.13-.73.29s-.53.28-1.2.27-1.08.06-1.08.16c0,.45.81.94,1.45.87.39,0,.72,0,.74.14.06.4-1.31.61-4.66.74-3.77.15-5.28.32-5.28.57s-.26.13-.58.07-.59,0-.59.13c0,.33.77.75,1.39.75.26,0,.49.1.49.23a.25.25,0,0,1-.25.24,1.72,1.72,0,0,0-.77.49l-.51.5.76-.11c.51-.07.77,0,.77.18s.18.25.47.17.46,0,.46.14c0,.38.6.33.94-.08A.93.93,0,0,1,9,55c.13,0,.08.19-.14.43a1.7,1.7,0,0,0-.39.58c0,.25.9.19,1.06-.07s.54-.27.7.24.46.59,1.31,0l.68-.48-.15.71c-.17.89.25,1,1.21.21.62-.49.64-.49.39,0s-.15.81.34.62a.77.77,0,0,1,.68.16c.24.2.35.21.35,0s.16-.26.35-.26a.34.34,0,0,1,.36.32c0,.23.21.32.64.27,2.44-.28-.71,1.14-3.55,1.6-1.86.29-2,.28-2.66-.12a2.55,2.55,0,0,0-.94-.43c-.49,0-.34.46.23.71.39.17.25.18-.53.06a12.86,12.86,0,0,0-1.64-.13,6.85,6.85,0,0,1-1.75-.31,4.89,4.89,0,0,0-1.23-.26C4,59.06,5.53,60,6.37,60.17l1,.16-.88,0c-.61,0-.88.14-.88.38a.43.43,0,0,0,.41.39,6.15,6.15,0,0,1,.64.09c.13,0,.39.06.58.08s.21.11-.12.36c-.58.42-.31.73.34.38.41-.22.49-.2.49.12s.17.37.77.28A7.08,7.08,0,0,0,10,62.16c.46-.16.45-.16,0,.2s-.36.46.4.38a.35.35,0,0,1,.41.33c0,.5.19.46.75-.16l.47-.53-.38.64a2.94,2.94,0,0,0-.37.88c0,.36,1.15.1,1.7-.39s.46-.41.29.17c-.25.79-.54,1-2.7,1.61-1.8.54-1.91.54-2.88.17s-2.51-.52-2.51-.19a.92.92,0,0,0,.28.47q.29.29-1-.09a4,4,0,0,0-1.61-.23c-.31.12-.28.23.18.72l.53.57-.79-.23c-1-.29-2.26-.29-2.44,0s1.38,1,2.31,1h.74L2.69,68c-.68.54-.67,1.26,0,1,.22-.09.33,0,.33.45s.12.58.44.58a1.35,1.35,0,0,1,.82.36c.3.3.44.3.83.06s.49-.38.49-.48.18,0,.42.24c.45.43.57,1,.22,1-.11,0-.13.12,0,.26s-.06.21-.57.1-.74-.07-.74.09-.45.26-1.05.26c-1.1,0-1.31.2-.71.7a2.05,2.05,0,0,0,1.47.15l1.11-.13-.87.46c-.6.32-.83.57-.73.83a.36.36,0,0,0,.52.2,3.69,3.69,0,0,1,.73-.21c.2,0,.22,0,.06,0-.59.21-.28.58.35.44.47-.11.55-.09.3.07-.62.42-.06.54.68.15.4-.2.72-.27.72-.15a.43.43,0,0,1-.29.33c-.16,0-.21.19-.11.3s.49.08.86-.06c.55-.21.66-.19.56.07s0,.28.3.17.39-.1.14.18-1,.31-3.7.28a11.73,11.73,0,0,0-3.39.17c0,.13.17.23.37.23a1.19,1.19,0,0,1,.7.33c.28.28.27.35,0,.47a3.9,3.9,0,0,1-1.11.14c-.86,0-1.45.31-1.24.64s1.42.49,2.38.16c1.28-.45,1.35-.42.69.24-.83.83-.77,1.33.12,1.07a5.18,5.18,0,0,0,.94-.35c.14-.08.25,0,.27.28s.06.54.07.69a.81.81,0,0,0,.18.44c.19.19,1.6-.6,1.6-.89,0-.11.1-.14.22-.06s.14.35,0,.73a3.66,3.66,0,0,0-.22.83c0,.31,1.11-.49,2.22-1.6.83-.83.95-.69.18.21a.88.88,0,0,0-.19.8c.13.35.21.33.74-.17l.61-.56-.08.59c-.07.54-.23.61-1.95.89a5,5,0,0,1-2.24.09c-.59-.36-1.87-.58-1.87-.31s.19.28.41.34-.12.06-.76,0c-1-.08-1.12,0-.88.19.45.45.35.62-.3.5s-1.82.12-1.64.42a.94.94,0,0,0,.68.23c1,0,.86.32-.36.81-2.08.84-1.63,1.46.51.7,1.08-.38,1.51-.31.71.11a.89.89,0,0,0-.48.63c0,.29.14.34.62.22s.6-.12.32.21c-.63.76,0,.76,1.09,0,.49-.36.51-.35.37.17s-.1.51.26.22.38-.28.23.11-.08.38.43-.08,1-.5.74.08.38.41,1.28-.13c.42-.26.76-.35.76-.21s.25.2.64.11.53-.08.3.07a8.45,8.45,0,0,1-1.65.47c-1.52.32-2,.57-1.76,1s.47.23,1.88-.15c.36-.1.29,0-.29.62a4.12,4.12,0,0,0-.76.85c0,.23,1.3-.06,2.05-.46s1-.3.4.42-.43.91.13.76c.3-.08.47,0,.47.21,0,.44.21.42.76-.08s.45-.39.37.06c-.12.72,1.18.5,1.87-.31l.54-.63L13,89c-.2,1,.39,1,1.3.06a5.3,5.3,0,0,1,.73-.71c.05,0,.1.27.12.61,0,.92.43,1.17.92.6s.44-.46.73-.09.31.36.45-.11c.08-.3.27-.46.46-.39s.37-.1.47-.5.22-.54.35-.34a1,1,0,0,0,.68.37c.38.06.6-.15,1-1,.51-1.06,1.06-1.47.78-.59-.18.57-.05.59.71.09a1.36,1.36,0,0,0,.6-.88c0-.4.05-.42.14-.09.18.69.54.21.55-.72,0-.7.05-.78.24-.45a.92.92,0,0,0,.73.41c.46,0,.48.09.33,1.82a8,8,0,0,1-.74,3c-.22.45-.41.84-.5,1.06h5.83c.26-.21.14-.57-.12-1.21-.42-1-.58-3-.25-3.14.13,0,.41.24.64.63.43.72,1,1,.71.36s.16-.33.48.43c.25.6.46.78.88.75a1.53,1.53,0,0,1,.89.21c.24.17.36.17.43,0s.24-.13.54.17c.61.61.91.58.77-.07-.07-.31,0-.43.08-.28.27.35,1,.6,1,.35s1.29-.16,2,.12c.36.15.42.1.31-.2s0-.42.13-.47.22-.18,0-.42c-.53-.56-.31-.64.57-.19s1.24.42.77-.2c-.25-.33-.26-.36,0-.14a.72.72,0,0,0,.63.16c.18-.07.33,0,.33.08a1.6,1.6,0,0,0,.32.66c.28.39.39.4.72.13s.43-.25.76.23l.38.54L42,89c.19-.52.23-.53.51-.15s.54.51,1,0c.29-.28.3-.43.07-.7s-.22-.35-.13-.35,0-.24-.12-.53c-.23-.44-.14-.41.52.19,1.46,1.32,1.56,1.37,2,1a.62.62,0,0,0,.2-.67c-.09-.17,0-.14.28.07,1.24,1,2.5,1.19,1.65.26-.38-.43-.37-.46.24-.61l.64-.16-.69-.56c-.9-.74-.42-.74.87,0a5.64,5.64,0,0,0,1.32.59c.48,0,.34-.37-.23-.65s-.44-.26.42-.27A3,3,0,0,0,52,86.09c.43-.33.42-.35-.25-.35a28.56,28.56,0,0,1-5.32-1c-.91-.38-1.08-1-.18-.61s1.19,0,.6-.37c-.33-.25-.22-.28.67-.21,1.15.09,1.39-.2.54-.63-.46-.23-.38-.26.61-.21,1.35.06,1.72-.38.57-.66l-.77-.19.76-.09c.9-.11,1-.35.24-.73-.44-.22-.25-.25,1-.14,1.41.12,1.49.1,1.07-.24a1.73,1.73,0,0,0-.87-.36.69.69,0,0,1-.56-.25c-.1-.16,0-.25.39-.22,1,.08,1.62,0,1.62-.2a3.8,3.8,0,0,0-1.65-.37c-.91-.09-1.6-.25-1.54-.35a4.67,4.67,0,0,1,1.51-.5c1.43-.32,2.34-.79,2.06-1.08a8.68,8.68,0,0,0-3.2.52c-.54.15-.52.1.21-.53,1.21-1,.53-1.15-1.21-.19a4.83,4.83,0,0,1-4.7.37c-2.2-.76-5.77-2.57-6-3.06s-.15-.6.45,0c.27.28.49.43.49.32s.15,0,.35.11.35.22.35-.14.12-.31.73.27l.74.69L40.49,75c-.14-.74-.13-.75.5-.48a5.87,5.87,0,0,1,1,.54c.91.7,1,.69.85-.14-.13-.62-.1-.73.12-.5.41.4,1.37.36,1.37-.07s.38-.46.63,0a3.22,3.22,0,0,0,.84.73c.53.34.64.36.64.07a1.34,1.34,0,0,0-.47-.76,1.44,1.44,0,0,1-.46-.67c0-.13,0-.16.13-.08s.32,0,.52-.23a1.36,1.36,0,0,1,1.24-.24c.61.08.93,0,1-.2s.31-.27.89-.1c2.07.6,2.45-.08.46-.8-1.35-.49-1.52-.74-.26-.38,1.61.46,3.69.11,2.81-.47a3.54,3.54,0,0,0-1.41-.26c-.89,0-1,0-.37-.18a1.17,1.17,0,0,0,.79-.47C51.4,70,51,70,49,70.1c-2.35.16-2.39.16-2.1-.3.43-.69.13-.81-1-.41a5.11,5.11,0,0,1-2.08.22,27.56,27.56,0,0,1-6.37-2.13c-.55-.48-.52-.82.06-.64.26.08.47,0,.47-.09s.35-.18,1.52.33a5.82,5.82,0,0,0,1.89.31c.66,0,1.29,0,1.41,0,.55.11.61,0,.2-.54s-.2-.31.27.12c.81.73,1,.79,1,.28,0-.3.08-.3.6,0,.36.23.67.31.77.18a2.59,2.59,0,0,1,.85-.53c.68-.3.69-.32.25-.64s-.39-.42.44-.1c.46.17.61.15.61-.08s.6-.43,1.53-.62A3.35,3.35,0,0,0,50.89,65c0-.11.1-.13.23,0a.84.84,0,0,0,.65-.09c.35-.2.32-.26-.25-.4s-.61-.27-.51-.59,0-.44-.4-.49-.11-.22.92-.55c1.6-.51,2-1,.59-.7s-4.51.31-4.51.08a.22.22,0,0,1,.23-.2.24.24,0,0,0,.24-.23c0-.13-.51-.23-1.12-.22-1.54,0-4-.48-4.15-.87-.08-.22.07-.32.46-.32s.58-.1.58-.23.16-.17.36-.09.35,0,.35-.14.17-.15.52.09a2.18,2.18,0,0,0,1.11.36h.6l-.55-.45-.53-.45,1.12-.07L48,59.32l-.82-.4-.82-.39H47a1.84,1.84,0,0,0,1.28-.59,1.85,1.85,0,0,1,.8-.59c.14,0,.4-.22.56-.48.43-.68-.12-.82-1.47-.36s-1.75.48-1.6-.1.1-.57-1.37-.09c-1.12.37-1.24.36-3-.15-2.41-.69-3-1.33-1.17-1.23a.6.6,0,0,0,.51-.24c.12-.18.31-.14.64.16s.68.39,1.42.26c1.07-.18,1.14-.27.55-.75-.43-.35-.27-.34.74.06.36.14.42.1.3-.21s0-.39.33-.39.45-.11.37-.34A.34.34,0,0,1,46,53c.2-.08.17-.22-.1-.44s-.34-.36.17-.86c.85-.81.69-1-.55-.59-3.07,1-4.21,1-5,.24-.43-.45-.45-.57-.17-.68a1.86,1.86,0,0,1,1.06.13c1,.38,1.21,0,.38-.68-.59-.47-.63-.56-.24-.52.83.07,1.29,0,1.29-.27s-.18-.24-.41-.25-.32-.06.08-.22a1.21,1.21,0,0,0,.64-.57c.13-.33.08-.34-.37-.09-.82.46-5.71.39-6.74-.09-.72-.34-.76-.39-.27-.41s.54-.11.43-.5-.09-.46.26-.16c.52.44,1.22.69,1.22.43s.21-.16.47-.09.47,0,.47-.14S39,47,39.28,47c.78,0,.74-.24-.16-1l-.76-.61,1.26.19c1.29.21,1.76.12,1.51-.28s.39-.91,1.1-.91.91-.38.16-.55c-.3-.06-.18-.1.29-.08s.8-.07.76-.25a.22.22,0,0,1,.2-.29c.18,0,.17-.12,0-.37a.93.93,0,0,0-.91-.25c-.33.07-.47.08-.3,0,.54-.23.3-.61-.3-.46s-.55.08-.42-.25.06-.34-.17-.19a2.71,2.71,0,0,1-.92.24,6.79,6.79,0,0,0-1.18.21l-.59.16.64-.55c.75-.64.86-1,.19-.66s-1.13.32-.77,0c.53-.53.32-.94-.22-.44a5.35,5.35,0,0,1-1.23.81c-1.43.68-5.3-.24-5.3-1.27a1.09,1.09,0,0,0-.28-.65c-.19-.19-.2-.28,0-.28a.52.52,0,0,1,.39.35c.09.23.42.35.91.33a4.62,4.62,0,0,1,1.3.14c.43.15.53.08.53-.32v-.48l.8.47c.57.33.84.4,1,.2a.37.37,0,0,0-.15-.49c-.28-.19,1.09-.16,2,0a2.17,2.17,0,0,0,.77-.13c.5-.16.51-.21.17-.58s-.33-.42.22-.56.81-.61.19-.63c-.26,0-.15-.12.3-.32a7.79,7.79,0,0,0,1.39-.9l.68-.57-.86-.16c-.47-.09-.86-.27-.86-.39s-.27-.17-.65-.07c-.56.14-.61.11-.35-.2.45-.55-.22-.72-.92-.23a3.45,3.45,0,0,1-1.7.41c-.93,0-1.06,0-.66-.21s.51-.4.3-1.29a2.37,2.37,0,0,0-.8.41,3.6,3.6,0,0,1-1.59.48,11.51,11.51,0,0,1-5.58-2.16c-.61-.46-.48-.55.23-.17.37.2.46.17.46-.17s0-.41.25,0c.14.23.34.35.46.28s.48,0,.8.26c.59.38.59.38.6-.29,0-.37.08-.55.17-.41a2.72,2.72,0,0,0,1.45.8c.13,0,.26-.24.28-.52,0-.51,0-.5.18,0,.09.33.21.54.27.49s.33,0,.59.16.55.18.81-.18.41-.39.52-.32.13-.15.05-.48c-.15-.59-.13-.6.49-.37s1,.15.58-.35c-.24-.3-.22-.35.13-.35s.39,0,0-.45c-.23-.25-.31-.51-.19-.58s.41.07.63.32.59.43,1.5.25c0,0,0-.16-.17-.33-.31-.37-.12-.62.45-.62a2,2,0,0,0,1-.46l.56-.47-.71,0a10.61,10.61,0,0,0-1.27,0c-.5,0-.54,0-.27-.33.51-.61.15-.61-.75,0s-1.58.79-1.11.23c.25-.3.23-.34-.09-.22s-.51-.15-.11-.55c.6-.6,0-.51-.78.11-1.45,1.22-1.63,1.26-3.28.76s-2.89-1.17-3.23-1.82c-.22-.4-.17-.45.34-.43a.82.82,0,0,1,.7.4.7.7,0,0,0,.6.4c.4,0,.47-.07.36-.47s-.06-.44.42.13a1.79,1.79,0,0,0,1.07.64c.46,0,.52-.09.4-.69-.18-.88.37-1.13,1-.41.39.48,1.71.83,1.71.44a2.92,2.92,0,0,0-.76-.8c-.59-.49-.67-.64-.35-.65a.61.61,0,0,1,.55.34c.08.19.23.3.33.23a.26.26,0,0,1,.34.12,1.08,1.08,0,0,0,.77.24c.59,0,.6,0,.16-.33s-.43-.35.21-.59a4.28,4.28,0,0,1,.94-.26c.15,0,0-.16-.31-.33-.57-.32-.57-.33.32-.25a1.59,1.59,0,0,0,1.25-.25c.51-.51.15-.8-1-.8-.64,0-1-.1-.9-.24.29-.48-.57-.49-1.55,0-1.2.58-1.42.61-1.24.14.09-.22,0-.35-.24-.35s-.32-.13-.23-.35c.16-.42.08-.43-.7-.14-.5.2-.55.16-.45-.23s-.27-.64-.53-.22a4.25,4.25,0,0,1-1.11.73,1.91,1.91,0,0,1-1.9.21c-.78-.24-.88-.33-.55-.51a.77.77,0,0,0,.4-.58c0-.27-.24-.34-1.06-.29s-1.17,0-1.51-.4c-.52-.52-1-2.38-.69-2.58s.31.38.22,1a2.23,2.23,0,0,0,.47,1c.4.56.57.65.83.43a1.32,1.32,0,0,0,.35-.89c0-.49.06-.52.15-.14a1.62,1.62,0,0,0,1.4,1.29c.48,0,.53-.07.32-.46-.31-.57-.31-.79,0-.6.13.08.24,0,.24-.1A.24.24,0,0,1,30,19.8c.13,0,.23.15.23.33,0,.42,1.37,1.59,1.66,1.41a.75.75,0,0,0,.22-.58c0-.25.11-.46.24-.46s.19-.13.11-.29,0-.06.28.24.52.46.62.37a1.42,1.42,0,0,1,.69-.25c.63-.09,1.58-.56,1.58-.79s-.31-.29-.7-.45-.67-.41-.64-.56-.27-.28-.67-.29c-.82,0-2-.59-1.57-.74a.48.48,0,0,0,.3-.43c0-.37-1.18-.47-1.54-.12s-1.28.55-1.28.3.27-.29.6-.38c.5-.12.56-.21.32-.49s-.19-.34.16-.35c.53,0,1.41-.63,1.2-.84a4,4,0,0,0-1.22-.27c-1.17-.13-1.17-.13-.82-.77.23-.42.28-.43.8-.09s.57.33.71-.13c.09-.26.26-.42.38-.35s.22,0,.22-.11.21-.25.47-.25.47-.15.47-.33c0-.36-.5-.61-1.2-.61-.53,0-.6-.43-.1-.62.19-.07.3-.21.24-.31s.15-.31.48-.48c.79-.42.59-.82-.41-.82H31l.59-.77c.46-.61.53-.84.3-1.06s-.45-.1-1,.56-.8.81-1.05.41c-.14-.24-.37-.43-.49-.43-.28,0-1,1.32-1.18,2.1-.12.58-2.28,2.43-2.61,2.23a3.59,3.59,0,0,1-.11-1.39c0-.71,0-1.29-.15-1.29s-.17-.39-.13-.87c.06-.72.18-.89.72-1s.64-.12.52.26c-.21.67.36.84.82.24.24-.32.46-.44.55-.29s1.1.12,1.1-.17A3.82,3.82,0,0,0,27.47,7.5a2.27,2.27,0,0,1-.57-.09c-.66-.17-.23-.5.47-.36,1.18.25,2.24.2,2.34-.1s-.05-.29-.24-.29a1,1,0,0,1-.63-.35c-.16-.2-.39-.29-.5-.22s-.21,0-.21-.06.32-.4.71-.66c.71-.48.9-.82.46-.82a5.35,5.35,0,0,0-2.17,1c-.12.17-.15.08-.06-.23s0-.57-.08-.64S25.79,6,25.79,6.59c0,.21-.07.31-.16.23s-.3,0-.47.25-.31.26-.2-.74a3.67,3.67,0,0,1,1.17-2.39,5.35,5.35,0,0,0,1.06-1.57c0-.57-1.17-.19-1.42.45-.38,1-.81.66-.73-.61.07-.92,0-1.27-.41-1.69L24.14,0ZM22.55,8.23a1.75,1.75,0,0,1,.66.54,2.31,2.31,0,0,1,.7,1.56,1.75,1.75,0,0,1-.1.79c-.12,0-.42-.73-.53-1.29A2.07,2.07,0,0,0,22.85,9a1.34,1.34,0,0,1-.35-.71S22.52,8.23,22.55,8.23ZM22,11.68a3,3,0,0,1,1.7,1.23c.31.81.13,1-.4.34a1.28,1.28,0,0,0-.71-.49c-.27,0-.91-.91-.74-1a.24.24,0,0,1,.15,0Zm6.41,1.91.2,0c.38.1.29.24-.61.93a4.72,4.72,0,0,1-1.52.86c-.24,0-.44.11-.44.21s-.12.19-.25.19-.22-.24-.18-.53c.06-.46.2-.52,1-.45s.88,0,.88-.3a.36.36,0,0,1,.35-.36.34.34,0,0,0,.35-.33.23.23,0,0,1,.26-.25ZM25.67,17l.55.27a1.86,1.86,0,0,0,1.11.13c.32-.08.57,0,.57.09a.24.24,0,0,1-.22.25,1.89,1.89,0,0,0-.55.12,1.2,1.2,0,0,1-.9-.37L25.67,17Zm2.57.58a.56.56,0,0,1,.24.16c.27.21.36.22.36,0s.11-.2.26-.11.14.27-.16.48c-.61.45-.81.4-.81-.18C28.13,17.63,28.15,17.52,28.24,17.53Zm3.54.86c.2,0,.3.11.22.23-.18.31-.58.31-.58,0C31.42,18.5,31.57,18.39,31.78,18.39Zm-5.52,3.75c.12,0,.23.53.23,1.18,0,1.19,0,1.29-.31,1S26,22.14,26.26,22.14Zm-1.79,3.13c.08,0,.14,0,.14.14a.24.24,0,0,1-.23.25c-.3,0-.3-.16,0-.35Zm1.89.5s0,0,.05.06a1.4,1.4,0,0,1,0,.71c-.06.22-.12.1-.12-.29S26.32,25.78,26.36,25.77Zm-2.92.13c.13,0,.23,0,.23.1s-.1.17-.23.25-.23,0-.23-.1A.24.24,0,0,1,23.44,25.9Zm-1.17.47c.13,0,.23,0,.23.1s-.1.17-.23.25-.24,0-.24-.1A.25.25,0,0,1,22.27,26.37Zm-4.89,0a.81.81,0,0,1,.52.31,1.09,1.09,0,0,0,1.7.17c.38-.45.94-.46.66,0-.08.12,0,.22.22.22a.64.64,0,0,0,.5-.23c.19-.31.58-.31.58,0,0,.13-.29.35-.64.49a9.85,9.85,0,0,1-2,.36c-1.17.11-1.36.07-1.59-.35a2.05,2.05,0,0,1-.25-.72A.23.23,0,0,1,17.38,26.38ZM38.91,38.8a.25.25,0,0,1,.25.24c0,.3-.17.3-.35,0C38.73,38.91,38.77,38.8,38.91,38.8ZM19.3,41.62c.14,0-.14.21-.62.47-.85.45-1.34.58-1.34.35a5.69,5.69,0,0,1,2-.82Zm20.26,10a2.09,2.09,0,0,1,.67.09c.32.13.16.18-.54.19a2.87,2.87,0,0,1-1-.07C38.69,51.72,39.13,51.65,39.56,51.64Zm5.25,1.27a.78.78,0,0,1,.26,0c.19.08.13.13-.15.14s-.38,0-.3-.12A.27.27,0,0,1,44.81,52.91Zm0,5.84h0a1.54,1.54,0,0,1,.59.23c.19.13.24.23.11.23A1.31,1.31,0,0,1,45,59C44.86,58.87,44.79,58.78,44.86,58.75ZM4,68.23c.12,0,.15,0,.09.14a.52.52,0,0,1-.36.23c-.34,0-.27-.17.13-.33Zm3.79,2,.54.57.53.57.4-.61c.37-.56.42-.57.63-.19s.28.34.42.12.23-.16.34.2c.16.51.6.71.6.27,0-.13.29-.23.64-.23h.65l-.7.37a3,3,0,0,1-1.71.26c-.54-.06-.93,0-.86.1.18.3-.17.24-.89-.13-.37-.19-.66-.24-.7-.1s-.27.15-.5.06c-.39-.15-.38-.2.1-.71Zm5.46.26h.14c.17.06.07.17-.25.25s-.48.07-.31-.1a.65.65,0,0,1,.42-.16Zm-2.38,9.67c.08,0,.14,0,.14.14a.24.24,0,0,1-.23.25c-.3,0-.3-.17,0-.35A.18.18,0,0,1,10.86,80.18Z"/></g></g></g></svg>