<svg xmlns="http://www.w3.org/2000/svg" viewBox="0 0 76.23 128.28"><defs><style>.cls-1{fill:#0e0603;}</style></defs><g id="Layer_2" data-name="Layer 2"><g id="tree-4"><g id="layer1"><path id="path2652" class="cls-1" d="M40.93,0l-.09.8c0,.44-.16,1.77-.26,3l-.17,2.16L39.27,4.59C38,3.05,37.77,3,37.72,4a4.89,4.89,0,0,0,1.14,2.21A3.89,3.89,0,0,1,40,9.51c0,1.23-.15,1.78-.37,1.62a.86.86,0,0,1-.3-.71c0-.26-.12-.48-.3-.49s-.3-.6-.26-1.3c.09-1.46-.68-2.53-1.24-1.75a1.1,1.1,0,0,0-.21.86c.15.49-.78.12-1.38-.55a1.47,1.47,0,0,0-.84-.47c-.89,0-.8.88.21,2.19,1.2,1.56,1.25,1.85.38,2a.57.57,0,0,0-.5.76c.15.72,1,.9,1.66.34.47-.42.48-.4.48.84,0,1-.06,1.06-1.14.35s-1.28-.69-1.33.06a2.72,2.72,0,0,0,1,1.53c.77.68.85.85.33.68s-.76,0-.91.29c-.33.72-.55.65-2.66-.91a6.39,6.39,0,0,0-2.25-1.28c-.7.22-.34,1.5.59,2.09l.93.58-.89.05a1.4,1.4,0,0,0-1.08.49c-.22.47.58,1,1.09.72.17-.09.31,0,.3.18s.24.37.56.41.44.1.1.21-.3.31.25.78l.74.62-1.39.16c-1.44.15-1.79.66-1,1.41a.83.83,0,0,0,1,.15c.65-.31,1.81-.05,1.78.4,0,.16.28.32.64.34s.67-.11.68-.29.35-.31.76-.27l.74.05-.85.62c-.67.49-.76.69-.42.93a1.49,1.49,0,0,0,1.8-.36c.16-.19.19.06,0,.56-.21.74-.15.9.41.93.36,0,.68-.14.71-.37s.1-.26.2.07.29.26.63-.3l.47-.77.36.94c.19.51.25,1,.1,1.15a9.62,9.62,0,0,1-2.64.2c-2.2,0-2.52-.1-3.91-1.11S30.64,23,30.6,23.66c0,.16.37.55.85.86l.88.57-1.14-.29a9.48,9.48,0,0,1-3.78-2.25,1.82,1.82,0,0,0-1.05-.48c-.67,0-.88.58-.38,1.14.18.21-.34.34-1.41.34a8.63,8.63,0,0,0-2,.15c-1.13.61,1.47,2,3.42,1.82l1.34-.11-1,.47c-.59.28-.94.69-.89,1,.11.82,1.55.63,2.52-.32A1.71,1.71,0,0,1,29.39,26c.44.13.38.24-.33.48-1.15.4-1.52.92-.86,1.22a.51.51,0,0,1,.33.65.5.5,0,0,0,.28.63c.26.11.48.08.48-.08s1.11-.66,1.92-.7a2.85,2.85,0,0,0,1.11-.6c.4-.32.72-.48.71-.34,0,.34-.78,1-1.66,1.37-.42.2-.77.5-.78.68,0,.62,1,.78,1.63.25s.65-.49.43.15c-.3.95.38.89,1.1-.09.46-.61.67-.7.87-.36s.3.37.55,0a1,1,0,0,1,.93-.3c1.32.25,3.13-.84,3.25-1.95.07-.59.1-.57.27.15s0,1-1.06,1.83a19.43,19.43,0,0,1-3.33,1.94l-2.11.95L31.59,31a15.34,15.34,0,0,0-1.95-1c-.58-.15-.54.5.09,1.33.48.64.48.66,0,.23-.29-.25-.66-.39-.83-.3a1.93,1.93,0,0,1-1.18-.37c-1.18-.71-1.56-.7-1.38,0,.12.47,0,.57-.83.5a2.58,2.58,0,0,1-1.15-.29c-.38-.42-1.48.1-1.51.73s.12.63.66.52.67-.11.08.46-.54.72.72.7c.57,0,.68.1.49.53s-.09.54.6.45.8,0,.64.48c-.22.67,0,.75.83.36s1.78,1,1.07,1.63c-.39.32-.5.3-.62-.08s-.65-.51-1.3-.58-1.08,0-1,.19-.13.2-.48.09c-.82-.27-.88.23-.09.79a1,1,0,0,1,.38,1.25c-.26,1-.31,1-1.47-.06a3.62,3.62,0,0,0-1.4-.91c-.55,0-.59.13-.21.95s.09.67-2.38.05c-.8-.21-1.23-.19-1.24,0,0,.42,1.63,1.47,2.41,1.51.45,0,.47.11.11.5s-.34.51,0,.68a1.77,1.77,0,0,0,.77.17c.7-.09,1.11.12,1,.5s.25.42.81.44.9.2.87.72,0,.64.67-.07.69-.62.66-.19.12.48.31.38.46.2.61.68a2,2,0,0,0,.76,1.09.77.77,0,0,1,.46.68.52.52,0,0,0,.51.5,1.39,1.39,0,0,1,.93.62c.36.56.43.56,1.2,0l.81-.6-.63.65A6.41,6.41,0,0,1,27.52,48c-2.94.52-3.64.46-4.78-.39s-1.6-.69-1.36.26c.14.53,0,.64-.78.59a2.21,2.21,0,0,1-1.25-.4c-.21-.24-.53-.21-1,.07-.64.41-.62.46.36,1.1.74.48,1,.83.8,1.25s-.06.58.23.55c1-.07,1.32.12,1.11.58-.36.8.82,1.27,1.77.69.63-.38.71-.39.39,0-.59.66-.1,1.42.78,1.2,1.27-.32,1.57.33.32.7-1.6.47-3.17.37-3.73-.25s-1.61-.76-1.41-.1c.13.41-.1.45-1.3.21-1.76-.35-2,.19-.41.88.77.33,1,.62.91,1-.22.66.8,1.1,1.63.7.45-.22.55-.12.52.53s.07.79.67.68.67,0,.46.41-.12.56.42.45c.37-.07.67,0,.66.17,0,.57.68.32,1.61-.56,1.13-1.06,1.77-1.28,2.52-.83s.63.88-.45.66-1.32.25-.58,1.47c.44.71.44.76-.17.72a1.91,1.91,0,0,0-1.19.43,1.68,1.68,0,0,1-1,.43.91.91,0,0,0-.71.27,2.51,2.51,0,0,1-1.49.2,4.46,4.46,0,0,0-1.73.15,3.21,3.21,0,0,1-1.5.1c-.87-.11-1.08,0-1.2.61s-.38.74-1,.73a7,7,0,0,0-1.17.06,3.62,3.62,0,0,1-.9,0c-.32,0-.58,0-.59.2,0,.43,1.74,1.51,2.56,1.56s.73.06.11.67-.61.63.23.68c.65,0,.81.17.64.54s0,.47.74.33a9.53,9.53,0,0,1,1.12-.15c1,.08,1.26.21,1.08.6-.4.88.46.91,1,0s.55-.84.52-.14c0,.4.08.76.22.79,2,.41,2.33.33,2.79-.62l.47-1,.25.8.24.81.68-.78c.68-.79.68-.79.65-.05-.05,1,.54,1,.86,0,.14-.45.4-.8.57-.79s.2.17.06.36.08.31.84.19,1.05-.07.92.23c-.23.59-2.36,1.5-3.38,1.44-.48,0-1,.13-1.05.35s-.77.35-1.7.28-1.53,0-1.54.14c0,.63,1.07,1.39,2,1.34.54,0,1,.09,1,.26.06.56-1.89.75-6.59.65-5.31-.11-7.44,0-7.46.35,0,.14-.39.16-.83,0s-.83-.06-.84.14c0,.46,1,1.11,1.89,1.16.37,0,.68.19.67.37a.35.35,0,0,1-.37.31,2.58,2.58,0,0,0-1.11.62l-.77.66,1.08-.08c.72-.06,1.07.05,1.06.32s.24.36.64.28.66,0,.65.23c0,.54.81.51,1.32,0a1.31,1.31,0,0,1,.77-.45c.19,0,.09.27-.23.58a2.42,2.42,0,0,0-.59.79c0,.35,1.24.34,1.49,0,.35-.51.78-.34,1,.39s.59.86,1.83.08l1-.62-.27,1c-.32,1.23.27,1.36,1.67.39.92-.64.95-.64.56,0s-.28,1.12.42.89a1.13,1.13,0,0,1,.95.29c.32.3.47.32.49.07a.43.43,0,0,1,.51-.34.47.47,0,0,1,.47.49c0,.32.27.46.88.42,3.46-.18-1.1,1.55-5.12,2-2.63.26-2.89.23-3.72-.39A3.65,3.65,0,0,0,15,81.23c-.68,0-.5.63.27,1,.53.26.33.28-.75,0A16.18,16.18,0,0,0,12.25,82a9.57,9.57,0,0,1-2.43-.58,6.37,6.37,0,0,0-1.7-.47C7.75,81.24,9.78,82.73,11,83l1.38.31-1.23,0c-.86,0-1.25.11-1.27.46a.61.61,0,0,0,.54.58,7.45,7.45,0,0,1,.9.18c.18.05.54.12.8.16s.29.18-.2.49c-.84.55-.48,1,.46.57.58-.27.7-.24.67.21s.21.52,1.05.46a10.76,10.76,0,0,0,1.75-.29c.67-.2.66-.2,0,.28s-.54.61.53.57a.48.48,0,0,1,.55.49c0,.71.23.67,1.07-.16l.71-.7-.59.86a3.92,3.92,0,0,0-.6,1.21c0,.5,1.61.23,2.42-.42s.69-.52.39.26c-.42,1.1-.83,1.31-3.92,2-2.57.61-2.72.61-4,0S8.82,89.59,8.79,90a1.32,1.32,0,0,0,.35.69C9.4,91,9,91,7.8,90.53a6,6,0,0,0-2.23-.47c-.44.15-.41.31.18,1l.71.85-1.09-.39c-1.41-.49-3.15-.6-3.43-.2S3.8,92.79,5.1,92.87l1,.06-1,.71c-1,.71-1,1.71-.08,1.41.33-.11.46.1.43.66s.12.83.58.85a1.86,1.86,0,0,1,1.11.58c.4.44.59.46,1.17.15.38-.21.71-.5.72-.63s.26,0,.57.36c.59.65.72,1.45.23,1.42-.16,0-.19.15-.08.36s-.1.29-.81.09-1-.16-1,.07-.66.32-1.5.27c-1.55-.09-1.85.17-1,.93a3,3,0,0,0,2.05.34L9,100.39,7.74,101c-.88.4-1.22.74-1.1,1.1a.5.5,0,0,0,.71.33,5.54,5.54,0,0,1,1.05-.23c.27,0,.31,0,.08.06-.85.24-.45.79.46.64.66-.11.77-.07.41.14-.9.53-.14.74.94.26.58-.26,1-.33,1-.16a.58.58,0,0,1-.44.44c-.23.07-.31.26-.18.42s.68.15,1.21,0c.8-.25.94-.22.78.14s0,.4.41.27.56-.11.18.26-1.5.35-5.22.08c-2.87-.21-4.76-.23-4.77,0s.21.34.5.35a1.68,1.68,0,0,1,1,.52c.37.42.36.52-.09.66a5.89,5.89,0,0,1-1.57.1c-1.21-.07-2.06.32-1.8.81s2,.8,3.33.41c1.84-.52,1.94-.48.95.4-1.23,1.09-1.19,1.8.08,1.51A7.51,7.51,0,0,0,7,109c.2-.11.35.08.36.41s0,.77,0,1a1.25,1.25,0,0,0,.22.64c.25.27,2.3-.72,2.32-1.13,0-.15.15-.18.32-.06s.17.51-.06,1A4.45,4.45,0,0,0,9.8,112c0,.44,1.6-.6,3.25-2.07,1.24-1.09,1.39-.88.23.32a1.23,1.23,0,0,0-.33,1.1c.15.51.27.49,1.06-.17l.9-.73-.16.82c-.15.74-.38.83-2.83,1.09a6.89,6.89,0,0,1-3.14-.07c-.8-.55-2.58-1-2.6-.6,0,.19.24.42.55.52s-.17.07-1.07-.06c-1.32-.2-1.57-.16-1.26.19.6.68.44.9-.45.68-1.05-.27-2.57,0-2.34.45a1.28,1.28,0,0,0,.93.37C4,114,3.72,114.4,2,115c-3,1-2.4,1.91.67,1,1.55-.45,2.14-.32,1,.21a1.22,1.22,0,0,0-.73.85c0,.39.17.48.85.35s.85-.12.44.32c-.95,1,0,1.08,1.52.09.72-.46.74-.45.51.27s-.18.71.34.33.56-.36.32.19-.15.52.61-.09,1.39-.62,1,.18c-.29.64.51.6,1.8-.08.62-.34,1.1-.43,1.09-.23s.33.3.9.21.75-.07.4.11a11.17,11.17,0,0,1-2.34.54c-2.17.31-2.86.63-2.56,1.19.2.38.65.36,2.66,0,.51-.11.4.1-.47.84a6.49,6.49,0,0,0-1.14,1.13c0,.33,1.84,0,2.92-.47s1.36-.34.53.62-.68,1.24.11,1.08c.44-.08.66,0,.64.34,0,.62.27.6,1.08,0,.64-.51.67-.51.52.12-.23,1,1.61.8,2.65-.28l.82-.84L17.84,124c-.37,1.4.45,1.48,1.81.19a7.78,7.78,0,0,1,1.09-.93c.07,0,.12.39.11.87,0,1.3.52,1.68,1.25.92.58-.6.66-.61,1-.06s.41.53.64-.12c.14-.42.42-.63.68-.51s.53-.12.71-.67.35-.74.51-.44a1.55,1.55,0,0,0,.92.58c.53.11.86-.17,1.49-1.29.81-1.44,1.6-2,1.14-.76-.3.79-.11.82,1,.19a1.92,1.92,0,0,0,.92-1.19c.06-.56.11-.58.2-.11.2,1,.75.34.83-1,.07-1,.14-1.1.38-.62a1.33,1.33,0,0,0,1,.64c.65,0,.66.16.31,2.58a11.47,11.47,0,0,1-1.28,4.08c-.35.61-.65,1.14-.8,1.44l8.2.49c.38-.27.24-.79-.08-1.71-.5-1.43-.55-4.3-.09-4.42.19-.05.57.36.86.93.54,1,1.26,1.47,1,.56s.25-.45.63.65c.3.87.58,1.14,1.17,1.13a2.11,2.11,0,0,1,1.23.36c.32.27.49.27.6,0s.36-.16.76.29c.8.9,1.22.88,1.07,0-.07-.44,0-.6.14-.38.35.51,1.38.92,1.4.57s1.83-.11,2.76.34c.49.23.59.17.45-.26s0-.59.23-.66.31-.23,0-.58c-.7-.84-.38-.92.81-.22s1.7.69,1.1-.22c-.33-.48-.33-.52,0-.19a1,1,0,0,0,.87.27c.25-.08.47,0,.46.15a2.34,2.34,0,0,0,.39,1c.37.57.51.6,1,.24s.63-.31,1,.38l.49.79.35-.77c.32-.72.37-.74.73-.18.48.74.72.76,1.4.16.43-.38.46-.58.16-1s-.28-.5-.15-.5.06-.33-.13-.75c-.28-.64-.16-.6.72.3,1.94,2,2.07,2.05,2.69,1.51a.88.88,0,0,0,.33-.92c-.12-.25.05-.2.39.11,1.66,1.5,3.4,1.88,2.29.5-.5-.63-.48-.67.39-.83l.91-.18-.92-.84c-1.2-1.11-.53-1.07,1.22.08a7.57,7.57,0,0,0,1.81.93c.67,0,.51-.49-.28-.93-.64-.36-.59-.39.61-.34a4.06,4.06,0,0,0,2-.39c.64-.42.63-.45-.31-.51a41,41,0,0,1-7.39-1.81c-1.25-.6-1.45-1.42-.21-.87,1.09.49,1.67.17.89-.47-.46-.38-.3-.41.95-.23,1.6.22,2-.17.81-.85-.63-.36-.52-.39.88-.24,1.88.2,2.45-.38.85-.88L68.18,117l1.08-.06c1.26-.08,1.39-.41.39-1-.59-.35-.33-.38,1.41-.12,2,.28,2.07.26,1.51-.24a2.29,2.29,0,0,0-1.18-.58,1,1,0,0,1-.77-.41c-.13-.23.08-.34.57-.26,1.37.19,2.27.13,2.28-.16a5.21,5.21,0,0,0-2.28-.65c-1.27-.2-2.22-.48-2.12-.62a6.18,6.18,0,0,1,2.15-.58c2-.33,3.36-.92,3-1.35-.19-.22-2,0-4.53.48-.76.15-.74.09.34-.74,1.79-1.36.84-1.57-1.69-.37s-4,1.23-6.62.13c-3-1.24-7.89-4.08-8.22-4.8-.41-.89-.15-.85.64.1.34.42.64.64.65.49s.23-.07.49.17.47.34.5-.15.19-.43,1,.43l1,1-.13-1.07c-.14-1.06-.12-1.07.74-.64a8.29,8.29,0,0,1,1.34.84c1.22,1.06,1.37,1,1.21-.12-.13-.89-.08-1,.22-.7.54.61,1.89.62,1.93,0s.56-.61.88,0a4.84,4.84,0,0,0,1.12,1.09c.72.53.87.55.9.16a2,2,0,0,0-.6-1.11,2,2,0,0,1-.6-1c0-.18.09-.23.2-.11s.44,0,.74-.27a2,2,0,0,1,1.77-.24c.85.17,1.29.1,1.43-.2s.45-.34,1.26,0c2.86,1,3.45.08.71-1.1-1.86-.8-2.07-1.16-.33-.54,2.21.78,5.17.46,4-.43a5.05,5.05,0,0,0-2-.49c-1.26-.11-1.34-.15-.51-.28a1.62,1.62,0,0,0,1.15-.6c.15-.38-.37-.45-3.18-.43-3.31,0-3.36,0-2.92-.59.66-.93.26-1.12-1.42-.67a7.1,7.1,0,0,1-2.93.15C60.86,99,54.69,96.55,54,95.85s-.66-1.2.14-.89c.36.14.66.1.67-.09,0-.36.51-.23,2.11.59a8.31,8.31,0,0,0,2.63.6,19,19,0,0,1,2,.19c.76.19.86,0,.33-.75-.39-.52-.26-.45.37.19,1.07,1.1,1.39,1.2,1.43.49,0-.43.14-.43.85.1.47.36.91.48,1,.31a4.06,4.06,0,0,1,1.25-.67c1-.36,1-.39.4-.87s-.52-.63.63-.11c.62.28.84.27.86,0s.87-.56,2.19-.75a5,5,0,0,0,2.19-.61c0-.16.15-.19.32-.07a1.09,1.09,0,0,0,.92-.07c.51-.25.48-.33-.31-.57s-.84-.43-.67-.87,0-.62-.53-.73-.13-.32,1.35-.7c2.29-.58,2.88-1.2.89-.93-1.84.25-6.37.07-6.35-.26a.31.31,0,0,1,.35-.26.33.33,0,0,0,.35-.31c0-.18-.69-.36-1.55-.39-2.16-.09-5.58-1-5.76-1.57-.1-.32.13-.45.68-.42s.82-.09.83-.27.24-.22.51-.1.49,0,.5-.17.26-.19.72.18a3.23,3.23,0,0,0,1.54.6l.83,0L67,86l-.71-.67h1.58l1.59,0-1.12-.62L67.17,84l1,0A2.56,2.56,0,0,0,70,83.35a2.67,2.67,0,0,1,1.17-.76c.2,0,.57-.27.82-.62.66-.93-.09-1.17-2-.64s-2.5.53-2.24-.27.2-.79-1.91-.24c-1.6.42-1.77.4-4.24-.46-3.33-1.17-4.15-2.13-1.54-1.82a.86.86,0,0,0,.74-.3c.18-.25.45-.17.88.27s.91.6,2,.49c1.51-.16,1.61-.28.82-1-.56-.52-.34-.49,1,.16.49.23.58.18.44-.28s0-.54.5-.51.64-.12.53-.45a.49.49,0,0,1,.25-.62c.28-.1.25-.29-.11-.63s-.45-.53.32-1.19c1.25-1.07,1-1.32-.72-.87-4.41,1.13-6,1.12-7-.07-.56-.68-.58-.85-.17-1a2.81,2.81,0,0,1,1.47.28c1.37.61,1.71.1.59-.92-.78-.71-.83-.84-.29-.76,1.15.17,1.82.08,1.84-.26,0-.18-.24-.35-.56-.39s-.44-.1.13-.29a1.81,1.81,0,0,0,1-.76c.2-.44.14-.47-.52-.15-1.19.58-8,.07-9.45-.7-1-.53-1-.6-.35-.59s.76-.11.65-.67-.09-.65.38-.19c.69.66,1.65,1.06,1.68.69,0-.15.31-.2.66-.08s.66.05.67-.16.39-.33.85-.31c1.09.07,1.06-.26-.15-1.38l-1-.93,1.75.38c1.8.4,2.46.32,2.15-.26s.63-1.24,1.62-1.18,1.31-.47.27-.76c-.42-.12-.24-.17.41-.1s1.13,0,1.1-.29a.3.3,0,0,1,.3-.38c.25,0,.24-.16,0-.52a1.29,1.29,0,0,0-1.26-.43c-.47.07-.66.06-.43,0,.78-.29.47-.83-.37-.68-.68.13-.78.06-.58-.38s.11-.47-.22-.29a3.69,3.69,0,0,1-1.31.26,10.55,10.55,0,0,0-1.68.2l-.84.18,1-.72c1.1-.84,1.29-1.36.32-.91s-1.61.35-1.07-.13c.78-.7.52-1.3-.28-.64a7.72,7.72,0,0,1-1.79,1c-2.07.84-7.42-.78-7.34-2.22a1.46,1.46,0,0,0-.35-.94q-.36-.42,0-.39c.19,0,.43.25.51.53s.57.51,1.25.52a6.52,6.52,0,0,1,1.81.32c.6.23.74.15.77-.41l0-.68,1.08.73c.78.52,1.16.63,1.34.36a.52.52,0,0,0-.17-.7c-.37-.29,1.54-.13,2.84.22A2.9,2.9,0,0,0,59,56.56c.71-.18.72-.25.28-.81s-.43-.61.36-.76c1-.18,1.19-.79.32-.86-.36,0-.2-.19.44-.44a10.93,10.93,0,0,0,2-1.14l1-.74-1.18-.3c-.67-.17-1.2-.44-1.19-.62s-.37-.26-.9-.16c-.8.15-.87.12-.48-.3.69-.74-.25-1-1.26-.4a4.9,4.9,0,0,1-2.44.43c-1.3-.05-1.48-.13-.89-.35s.73-.51.52-1.79a3.88,3.88,0,0,0-1.16.51,5,5,0,0,1-2.27.55c-2-.13-5.5-1.71-7.65-3.5-.82-.7-.63-.82.33-.22.51.31.63.27.67-.21s.06-.57.35,0c.17.33.44.53.61.44s.67.1,1.11.43c.8.59.8.58.86-.35,0-.53.16-.78.28-.57a3.89,3.89,0,0,0,2,1.25c.19,0,.39-.32.43-.72.07-.7.08-.7.25.1.1.46.26.77.34.7s.46,0,.82.28c.54.32.76.29,1.15-.19.27-.33.61-.51.76-.41s.19-.19.1-.67c-.16-.83-.13-.85.72-.47,1.05.47,1.39.28.85-.45-.32-.44-.28-.51.21-.48s.55,0,0-.63c-.28-.36-.38-.73-.2-.83s.56.13.86.51c.46.58.78.65,2.07.47.07,0,0-.22-.21-.48-.39-.54-.12-.88.68-.83A2.75,2.75,0,0,0,61,42l.82-.6-1-.12a14.41,14.41,0,0,0-1.79-.1c-.7,0-.75,0-.35-.47.77-.83.27-.86-1.06-.07s-2.28,1-1.57.22c.37-.4.36-.46-.11-.31-.64.21-.7-.25-.1-.78.89-.79,0-.72-1.11.09-2.14,1.59-2.4,1.63-4.67.79s-4-1.89-4.39-2.83c-.26-.57-.19-.65.52-.57a1.15,1.15,0,0,1,1,.62,1,1,0,0,0,.82.61c.55.07.66-.06.54-.63s-.06-.62.58.22a2.5,2.5,0,0,0,1.45,1c.64,0,.73-.08.61-.92-.17-1.26.62-1.56,1.36-.51.51.72,2.34,1.31,2.37.77a3.94,3.94,0,0,0-1-1.19c-.78-.74-.88-1-.43-.94a.83.83,0,0,1,.74.52c.09.28.29.44.45.36a.34.34,0,0,1,.46.19,1.48,1.48,0,0,0,1.06.4c.83.05.85,0,.26-.46s-.58-.51.33-.8a5.46,5.46,0,0,1,1.34-.28c.22,0,0-.23-.4-.5-.78-.5-.77-.5.47-.32a2.3,2.3,0,0,0,1.78-.24c.76-.68.27-1.12-1.36-1.22-.91,0-1.39-.22-1.25-.41.45-.65-.76-.74-2.17-.16-1.73.72-2,.74-1.76.1.14-.31,0-.5-.3-.52s-.44-.21-.3-.51c.26-.57.15-.59-1-.25-.73.23-.8.19-.62-.36s-.33-.92-.73-.35a5.8,5.8,0,0,1-1.61.93,2.73,2.73,0,0,1-2.7.13c-1.07-.39-1.2-.53-.73-.76A1.11,1.11,0,0,0,46,31c0-.39-.31-.51-1.47-.51s-1.63-.16-2.09-.68c-.67-.77-1.22-3.42-.75-3.68.29-.16.41.56.24,1.45A3,3,0,0,0,42.52,29c.52.83.75,1,1.14.68a2,2,0,0,0,.57-1.22c.07-.68.12-.72.21-.19A2.26,2.26,0,0,0,46.3,30.2c.68,0,.74-.05.48-.61-.38-.83-.36-1.14,0-.85.18.12.33.07.34-.12a.34.34,0,0,1,.35-.33c.18,0,.32.22.3.48,0,.59,1.79,2.35,2.21,2.12a1,1,0,0,0,.36-.8c0-.35.19-.63.38-.62s.27-.17.17-.4.06-.07.38.36.69.69.83.57a2,2,0,0,1,1-.29c.9-.08,2.27-.65,2.29-1,0-.12-.42-.44-.94-.69s-.91-.63-.86-.84-.36-.41-.91-.47c-1.15-.1-2.78-1-2.14-1.16A.65.65,0,0,0,51,25c0-.52-1.6-.75-2.15-.3s-1.83.66-1.81.31c0-.17.4-.38.87-.47.71-.14.8-.26.5-.67s-.25-.5.25-.48c.74,0,2-.77,1.75-1.08a5.52,5.52,0,0,0-1.69-.47c-1.63-.29-1.63-.28-1.09-1.16.36-.57.44-.58,1.14-.06s.76.51,1-.11c.14-.37.4-.58.56-.47s.3.06.32-.13.31-.33.68-.31.67-.17.68-.43c0-.5-.64-.89-1.62-.95-.75-.05-.82-.66-.1-.88.28-.09.44-.28.37-.42s.24-.42.71-.64c1.14-.52.9-1.09-.51-1.17L49.71,15l.89-1c.7-.82.81-1.13.51-1.46s-.62-.18-1.52.69c-1.08,1-1.18,1.07-1.5.49-.19-.34-.49-.63-.66-.64-.4,0-1.55,1.76-1.84,2.85-.21.8-3.4,3.22-3.84,2.91a4.89,4.89,0,0,1,0-2c.09-1,0-1.82-.11-1.83s-.21-.56-.12-1.23c.15-1,.33-1.24,1.11-1.4s.91-.11.71.41c-.36.93.43,1.22,1.12.41.37-.43.69-.58.81-.37.2.38,1.52.26,1.55-.13A5.41,5.41,0,0,0,45,10.81a3.11,3.11,0,0,1-.79-.17c-.91-.3-.28-.73.69-.47,1.63.44,3.12.47,3.29.05.09-.22,0-.41-.31-.43A1.36,1.36,0,0,1,47,9.25c-.21-.29-.51-.44-.68-.36S46,8.94,46,8.8s.48-.54,1-.87c1-.61,1.34-1.08.72-1.12A7.67,7.67,0,0,0,44.66,8c-.19.24-.21.11-.07-.32s.11-.8-.06-.91c-.34-.25-1.8,1.79-1.84,2.58,0,.29-.13.43-.24.31s-.42,0-.69.31c-.42.47-.45.34-.21-1.06A5.24,5.24,0,0,1,43.39,5.7,7.55,7.55,0,0,0,45,3.58c0-.79-1.64-.37-2,.51-.63,1.4-1.2.87-1-.91.17-1.29.08-1.79-.43-2.41L40.93,0ZM38,11.43a2.35,2.35,0,0,1,.87.8,3.29,3.29,0,0,1,.86,2.26,2.54,2.54,0,0,1-.2,1.09c-.18,0-.54-1.06-.65-1.85a2.83,2.83,0,0,0-.53-1.21,1.91,1.91,0,0,1-.43-1C37.94,11.44,38,11.42,38,11.43Zm-1.09,4.79a4.23,4.23,0,0,1,2.28,1.87c.36,1.15.11,1.35-.58.44a1.86,1.86,0,0,0-1-.75c-.38,0-1.2-1.35-.95-1.53a.28.28,0,0,1,.21,0Zm8.83,3.22.28.06c.54.17.4.36-.93,1.25a6.45,6.45,0,0,1-2.21,1.07c-.34,0-.62.12-.63.26a.33.33,0,0,1-.37.25c-.2,0-.29-.35-.21-.76.13-.63.32-.71,1.39-.55s1.23.06,1.26-.34a.51.51,0,0,1,.52-.49.48.48,0,0,0,.52-.43.32.32,0,0,1,.38-.32Zm-4.09,4.49.74.42a2.6,2.6,0,0,0,1.56.27c.46-.08.8,0,.78.18a.33.33,0,0,1-.33.33,2.85,2.85,0,0,0-.78.12c-.26.09-.81-.18-1.22-.59l-.75-.73Zm3.56,1c.08,0,.18.1.33.23.35.33.47.34.49,0s.18-.27.38-.13.17.38-.27.67c-.88.57-1.16.48-1.11-.33C45.06,25.09,45.1,24.93,45.22,25Zm4.89,1.5c.28,0,.42.17.3.34-.29.42-.85.38-.82,0C49.6,26.57,49.83,26.44,50.11,26.46ZM42,31.27c.19,0,.29.76.24,1.66-.1,1.67-.16,1.81-.53,1.4S41.68,31.25,42,31.27Zm-2.77,4.24c.12,0,.2.07.2.21a.35.35,0,0,1-.35.33c-.43,0-.41-.26,0-.49A.43.43,0,0,1,39.27,35.51Zm2.62.86s0,0,.06.09a1.8,1.8,0,0,1-.05,1c-.1.31-.16.13-.14-.41S41.83,36.37,41.89,36.37Zm-4.11-.07c.18,0,.32.08.32.16s-.16.23-.35.34-.33,0-.32-.17A.34.34,0,0,1,37.78,36.3Zm-1.69.56c.18,0,.33.08.32.16s-.16.24-.35.34-.33,0-.32-.17A.34.34,0,0,1,36.09,36.86Zm-6.85-.4a1.18,1.18,0,0,1,.69.49,1.53,1.53,0,0,0,2.37.38c.58-.6,1.36-.57.93,0-.11.17,0,.32.29.33a.87.87,0,0,0,.72-.29c.29-.41.85-.38.82.05,0,.19-.43.48-.94.64a14.36,14.36,0,0,1-2.81.35c-1.65,0-1.92,0-2.2-.63a3.12,3.12,0,0,1-.29-1A.33.33,0,0,1,29.24,36.46ZM58.42,55.71a.34.34,0,0,1,.33.35c0,.43-.26.41-.49,0C58.16,55.85,58.23,55.7,58.42,55.71ZM30.65,58c.2,0-.21.28-.91.6-1.23.57-1.93.71-1.91.39a7.73,7.73,0,0,1,2.82-1Zm27.6,15.76a2.85,2.85,0,0,1,.94.18c.44.21.22.27-.78.22A4,4,0,0,1,57,74C57,73.83,57.65,73.76,58.25,73.79ZM65.52,76a.87.87,0,0,1,.37.09c.25.12.16.18-.22.18s-.54-.1-.43-.2A.45.45,0,0,1,65.52,76Zm-.41,8.21h.06a2.24,2.24,0,0,1,.81.37c.26.19.32.34.14.33a2,2,0,0,1-.8-.37C65.09,84.39,65,84.24,65.11,84.22ZM6.94,94.11c.16,0,.19.06.1.2a.7.7,0,0,1-.52.3c-.48,0-.36-.27.22-.46Zm5.15,3.15.7.85.7.85.62-.83c.56-.76.63-.77.9-.22s.37.5.57.2.33-.19.46.32c.18.72.79,1,.82.43,0-.18.43-.31.93-.28l.9.06-1,.46a4.22,4.22,0,0,1-2.41.22c-.76-.13-1.31-.09-1.22.07.24.44-.25.33-1.23-.26-.5-.3-.91-.38-1-.2s-.39.19-.71,0c-.53-.24-.51-.31.2-1Zm7.64.82a.58.58,0,0,1,.19,0c.24.1.08.24-.37.33s-.68.06-.42-.17a.85.85,0,0,1,.6-.19Zm-4.16,13.38c.12,0,.21.06.2.2a.35.35,0,0,1-.35.34c-.42,0-.41-.26,0-.5A.41.41,0,0,1,15.57,111.46Z"/></g></g></g></svg>